/* XPM */
static const char * go_next_xpm[] = {
/* columns rows colors chars-per-pixel */
"24 24 136 2 ",
"   c #555753",
".  c #595A57",
"X  c #636661",
"o  c #646762",
"O  c #666963",
"+  c #6A6C67",
"@  c #6B6E69",
"#  c #6D6F6A",
"$  c #6E726C",
"%  c #71726D",
"&  c #72736F",
"*  c #72746F",
"=  c #717470",
"-  c #737670",
";  c #757973",
":  c #7B7D77",
">  c #7B7D79",
",  c #7C7E79",
"<  c #7E7F7B",
"1  c #7E807C",
"2  c #80827E",
"3  c #81847E",
"4  c #868883",
"5  c #878883",
"6  c #8B8D88",
"7  c #8F918B",
"8  c #8F918C",
"9  c #8E918D",
"0  c #90928D",
"q  c #91948E",
"w  c #92948F",
"e  c #949591",
"r  c #949691",
"t  c #959792",
"y  c #979A94",
"u  c #989B95",
"i  c #999C96",
"p  c #999C97",
"a  c #9A9D97",
"s  c #9B9D97",
"d  c #9B9E98",
"f  c #9D9E98",
"g  c #9C9F99",
"h  c #9DA09A",
"j  c #9EA19B",
"k  c #9FA19B",
"l  c #9FA19C",
"z  c #A0A19B",
"x  c #A0A39E",
"c  c #A2A69F",
"v  c #A3A6A0",
"b  c #A4A5A0",
"n  c #A4A7A0",
"m  c #A5A7A2",
"M  c #A6A8A1",
"N  c #A7A8A2",
"B  c #A8A9A2",
"V  c #A9ABA5",
"C  c #A9ABA6",
"Z  c #ABAEA7",
"A  c #AEAFA9",
"S  c #B1B2AE",
"D  c #B2B4B0",
"F  c #B7B9B5",
"G  c #BABBB7",
"H  c #BFC0BD",
"J  c #BFC0BE",
"K  c #C1C2BE",
"L  c #C2C3BF",
"P  c #C4C4C1",
"I  c #C5C6C2",
"U  c #C6C8C4",
"Y  c #C8CAC6",
"T  c #CCCEC9",
"R  c #CECFCC",
"E  c #D0D2CC",
"W  c #D2D3D0",
"Q  c #D3D4D1",
"!  c #D3D5D1",
"~  c #D5D6D2",
"^  c #D6D6D4",
"/  c #D8D9D5",
"(  c #D9DAD8",
")  c #DADBD8",
"_  c #DBDBD9",
"`  c #DBDCD8",
"'  c #DCDDDA",
"]  c #DDDDDB",
"[  c #DDDEDA",
"{  c #DEDFDB",
"}  c #DFE0DC",
"|  c #DFE0DE",
" . c #E0E0DE",
".. c #E1E1DE",
"X. c #E0E1DF",
"o. c #E1E1DF",
"O. c #E3E3E0",
"+. c #E2E3E1",
"@. c #E3E4E0",
"#. c #E4E5E3",
"$. c #E6E6E4",
"%. c #E7E7E5",
"&. c #E8E8E6",
"*. c #E9E9E7",
"=. c #E9EAE9",
"-. c #EAEAE9",
";. c #EBEBEA",
":. c #EBECEA",
">. c #ECECEB",
",. c #ECEDEB",
"<. c #EDEDEB",
"1. c #ECECEC",
"2. c #EEEEED",
"3. c #F0F0EE",
"4. c #F0F0EF",
"5. c #F0F1F0",
"6. c #F1F1F0",
"7. c #F1F1F1",
"8. c #F2F2F1",
"9. c #F3F3F2",
"0. c #F4F4F3",
"q. c #F5F5F4",
"w. c #F5F6F5",
"e. c #F6F6F5",
"r. c #F6F7F6",
"t. c #F7F7F6",
"y. c #F7F8F7",
"u. c #F8F8F7",
"i. c #F8F9F8",
"p. c #FAFAF9",
"a. c #FBFBFA",
"s. c #FCFCFB",
"d. c gray99",
"f. c #FDFDFD",
"g. c #FEFEFE",
"h. c None",
/* pixels */
"h.h.h.h.h.h.h.h.h.h.h.h.h.h.h.h.h.h.h.h.h.h.h.h.",
"h.h.h.h.h.h.h.h.h.h.h.h.h.h.h.h.h.h.h.h.h.h.h.h.",
"h.h.h.h.h.h.h.h.h.h.h.B m m h.h.h.h.h.h.h.h.h.h.",
"h.h.h.h.h.h.h.h.h.h.m o.f.2.l h.h.h.h.h.h.h.h.h.",
"h.h.h.h.h.h.h.h.h.h.c f.e.s.8.i h.h.h.h.h.h.h.h.",
"h.h.h.h.h.h.h.h.h.h.k o.q.3.s.8.t h.h.h.h.h.h.h.",
"h.h.h.h.h.h.h.h.h.h.h.i ' 0.3.d.5.8 h.h.h.h.h.h.",
"h.h.h.h.h.h.h.h.h.h.h.h.t _ 0.3.f.3.6 h.h.h.h.h.",
"h.h.h.h.h.h.h.h.h.h.h.h.h.0 _ 8.<.s.2.4 h.h.h.h.",
"h.h.h.A C C h.h.h.x d k h.h.6 ^ 3.&.a.2.2 h.h.h.",
"h.h.Z o.f.| c h.z ] f._ y h.h.5 E 2.o.p.:.> h.h.",
"h.h.m f.e.3.k h.i f.e.2.w h.h.h.3 q.&.} y.S = h.",
"h.h.m Q &.G f h.y R $.D q h.h.2 <.u.) %.Y - h.h.",
"h.h.h.k i d h.h.h.t 8 8 h.h.1 :.u./ $.U * h.h.h.",
"h.h.h.h.h.h.h.h.h.h.h.h.h.< ;.e.~ o.I % h.h.h.h.",
"h.h.h.h.h.h.h.h.h.h.h.h., ;.e.Q o.I $ h.h.h.h.h.",
"h.h.h.h.h.h.h.h.h.h.h.: ;.e.E | L # h.h.h.h.h.h.",
"h.h.h.h.h.h.h.h.h.h.; +.0.T ' K @ h.h.h.h.h.h.h.",
"h.h.h.h.h.h.h.h.h.h.* f.Q ) J + h.h.h.h.h.h.h.h.",
"h.h.h.h.h.h.h.h.h.h.o J ) F O h.h.h.h.h.h.h.h.h.",
"h.h.h.h.h.h.h.h.h.h.h.. X   h.h.h.h.h.h.h.h.h.h.",
"h.h.h.h.h.h.h.h.h.h.h.h.h.h.h.h.h.h.h.h.h.h.h.h.",
"h.h.h.h.h.h.h.h.h.h.h.h.h.h.h.h.h.h.h.h.h.h.h.h.",
"h.h.h.h.h.h.h.h.h.h.h.h.h.h.h.h.h.h.h.h.h.h.h.h."
};
