/* XPM */
static const char * go_previous_xpm[] = {
/* columns rows colors chars-per-pixel */
"24 24 130 2 ",
"   c #555753",
".  c #565855",
"X  c #60615D",
"o  c #666863",
"O  c #6C6E69",
"+  c #6F726E",
"@  c #6F736E",
"#  c #787B75",
"$  c #7C7E79",
"%  c #7D7F7A",
"&  c #7E807B",
"*  c #7D807C",
"=  c #7F817C",
"-  c #7F827D",
";  c #82837F",
":  c #838680",
">  c #868883",
",  c #878984",
"<  c #878A85",
"1  c #888985",
"2  c #888B86",
"3  c #898C86",
"4  c #898D87",
"5  c #8A8E87",
"6  c #8B8C88",
"7  c #8B8E88",
"8  c #8C8F89",
"9  c #8E8F8B",
"0  c #8D908B",
"q  c #8E908A",
"w  c #8F918C",
"e  c #91948F",
"r  c #92958F",
"t  c #929590",
"y  c #949691",
"u  c #949791",
"i  c #959892",
"p  c #979894",
"a  c #979994",
"s  c #979B94",
"d  c #979A95",
"f  c #999B94",
"g  c #989B97",
"h  c #989C95",
"j  c #9B9E98",
"k  c #9B9F99",
"l  c #9C9F99",
"z  c #9FA19B",
"x  c #A1A29B",
"c  c #A0A39C",
"v  c #A1A49E",
"b  c #A3A69F",
"n  c #A5A7A0",
"m  c #A4A7A1",
"M  c #A6A8A2",
"N  c #A7AAA3",
"B  c #A7A9A5",
"V  c #A7AAA4",
"C  c #A9ABA6",
"Z  c #A8ACA5",
"A  c #ACAEA9",
"S  c #AFB0AC",
"D  c #B8BAB5",
"F  c #C4C5C2",
"G  c #C6C7C5",
"H  c #C7C8C5",
"J  c #C9CBC7",
"K  c #CACCC8",
"L  c #CBCCCA",
"P  c #CECFCB",
"I  c #CFD1CB",
"U  c #CED0CC",
"Y  c #D0D1CD",
"T  c #D2D3D0",
"R  c #D2D4D1",
"E  c #D4D6D2",
"W  c #D5D7D3",
"Q  c #D5D6D4",
"!  c #D6D6D4",
"~  c #D6D7D5",
"^  c #D8D9D7",
"/  c #D9DBD7",
"(  c #D9DAD8",
")  c #DADBD9",
"_  c #DADCD8",
"`  c #DBDCD9",
"'  c #DBDCDA",
"]  c #DCDCDA",
"[  c #DCDDDB",
"{  c #DCDEDA",
"}  c #DFE0DC",
"|  c #E0E1DE",
" . c #E3E3E2",
".. c #E3E4E1",
"X. c #E4E4E1",
"o. c #E5E5E3",
"O. c #E6E7E5",
"+. c #E9E9E7",
"@. c #EAEBE8",
"#. c #EAEAE9",
"$. c #EBECEA",
"%. c #EDEDEB",
"&. c #ECEDEC",
"*. c #EEEEEC",
"=. c #EEEEED",
"-. c #EFEFEE",
";. c #EFEFEF",
":. c #F0F0EE",
">. c #F0F0EF",
",. c #F1F1EF",
"<. c #F1F1F0",
"1. c #F1F2F0",
"2. c #F1F2F1",
"3. c #F2F2F0",
"4. c #F2F2F1",
"5. c gray95",
"6. c #F3F3F2",
"7. c #F4F4F3",
"8. c gray96",
"9. c #F6F6F5",
"0. c #F6F6F6",
"q. c #F7F7F6",
"w. c #F7F8F7",
"e. c #F9F9F8",
"r. c #FAFAF9",
"t. c #FBFBFA",
"y. c #FBFBFB",
"u. c gray99",
"i. c #FDFDFD",
"p. c None",
/* pixels */
"p.p.p.p.p.p.p.p.p.p.p.p.p.p.p.p.p.p.p.p.p.p.p.p.",
"p.p.p.p.p.p.p.p.p.p.p.p.p.p.p.p.p.p.p.p.p.p.p.p.",
"p.p.p.p.p.p.p.p.p.p.Z V m p.p.p.p.p.p.p.p.p.p.p.",
"p.p.p.p.p.p.p.p.p.C 4.7.P x p.p.p.p.p.p.p.p.p.p.",
"p.p.p.p.p.p.p.p.C 4.u.4.:.l p.p.p.p.p.p.p.p.p.p.",
"p.p.p.p.p.p.p.M 4.u.:.7.! f p.p.p.p.p.p.p.p.p.p.",
"p.p.p.p.p.p.m 4.u.:.7.[ h p.p.p.p.p.p.p.p.p.p.p.",
"p.p.p.p.p.b 4.u.:.7.[ s p.p.p.p.p.p.p.p.p.p.p.p.",
"p.p.p.p.b 6.u.:.7.[ i p.p.p.p.p.p.p.p.p.p.p.p.p.",
"p.p.p.z 4.u.:.7.[ u p.p.j s s p.p.p.w 6 6 p.p.p.",
"p.p.z :.y.:.7.[ r p.p.g ^ u.^ e p.9 ~ u.~ > p.p.",
"p.z J t.-.4.7.t p.p.p.u u.7.-.6 p.2 u.4.-.= p.p.",
"p.p.s ^ :.@.t.-.q p.p.t P o.S 6 p.2 G ..C & p.p.",
"p.p.p.t ! %...t.-.2 p.p.9 < 3 p.p.p.; % % p.p.p.",
"p.p.p.p.0 R @.| e.$.: p.p.p.p.p.p.p.p.p.p.p.p.p.",
"p.p.p.p.p.< I O.^ w.$.& p.p.p.p.p.p.p.p.p.p.p.p.",
"p.p.p.p.p.p.: K ..R w.$.# p.p.p.p.p.p.p.p.p.p.p.",
"p.p.p.p.p.p.p.& J | Y 7.R + p.p.p.p.p.p.p.p.p.p.",
"p.p.p.p.p.p.p.p.# F ` I [ O p.p.p.p.p.p.p.p.p.p.",
"p.p.p.p.p.p.p.p.p.@ D ` A X p.p.p.p.p.p.p.p.p.p.",
"p.p.p.p.p.p.p.p.p.p.  o . p.p.p.p.p.p.p.p.p.p.p.",
"p.p.p.p.p.p.p.p.p.p.p.p.p.p.p.p.p.p.p.p.p.p.p.p.",
"p.p.p.p.p.p.p.p.p.p.p.p.p.p.p.p.p.p.p.p.p.p.p.p.",
"p.p.p.p.p.p.p.p.p.p.p.p.p.p.p.p.p.p.p.p.p.p.p.p."
};
