/* XPM */
static const char * object_rotate_right_xpm[] = {
/* columns rows colors chars-per-pixel */
"24 24 141 2 ",
"   c #A14800",
".  c #A34901",
"X  c #A44901",
"o  c #A44A01",
"O  c #A54A01",
"+  c #A74B01",
"@  c #A84B01",
"#  c #A94C00",
"$  c #AA4C00",
"%  c #AB4D00",
"&  c #AD4E01",
"*  c #AE4E00",
"=  c #B04E00",
"-  c #B04F00",
";  c #B04F01",
":  c #B24F00",
">  c #B25000",
",  c #B35100",
"<  c #B05002",
"1  c #B35102",
"2  c #B45000",
"3  c #B55100",
"4  c #B65000",
"5  c #B65100",
"6  c #B75200",
"7  c #BA5400",
"8  c #BF5600",
"9  c #BB5705",
"0  c #BF5803",
"q  c #C05600",
"w  c #C25700",
"e  c #C45800",
"r  c #C55800",
"t  c #C65800",
"y  c #C75900",
"u  c #C75B03",
"i  c #C65B06",
"p  c #C95900",
"a  c #CA5A00",
"s  c #CB5B00",
"d  c #CC5B00",
"f  c #CD5C00",
"g  c #CE5C00",
"h  c #CB6C1F",
"j  c #F57D04",
"k  c #CA6F24",
"l  c #D0752B",
"z  c #D07A33",
"x  c #D37C36",
"c  c #F5800A",
"v  c #F6800D",
"b  c #F88D17",
"n  c #F6891E",
"m  c #F8901E",
"M  c #D9802D",
"N  c #CD8030",
"B  c #F78E29",
"V  c #F7912E",
"C  c #FA9E2B",
"Z  c #E18E3A",
"A  c #E28E3A",
"S  c #E18D3F",
"D  c #F89231",
"F  c #F79838",
"G  c #F7993A",
"H  c #F79A3F",
"J  c #FAA132",
"K  c #D78844",
"L  c #DF9556",
"P  c #DE985C",
"I  c #E19645",
"U  c #E29745",
"Y  c #E29E4E",
"T  c #E29F4E",
"R  c #E29E4F",
"E  c #F9A548",
"W  c #FCB143",
"Q  c #F2A152",
"!  c #F8A350",
"~  c #FBB359",
"^  c #E19D64",
"/  c #E4A165",
"(  c #E5A366",
")  c #E0A16C",
"_  c #E8A568",
"`  c #E9A568",
"'  c #F9AE63",
"]  c #F9B671",
"[  c #FAB675",
"{  c #FDC168",
"}  c #FDC675",
"|  c #FBC07E",
" . c #E5AE80",
".. c #F9BF84",
"X. c #EFC199",
"o. c #F7C392",
"O. c #FBC895",
"+. c #F6C799",
"@. c #F8C799",
"#. c #FAC999",
"$. c #FBC999",
"%. c #FBCA99",
"&. c #FBCA9A",
"*. c #FBCC9F",
"=. c #FCCC9E",
"-. c #FBCDA0",
";. c #FBCEA1",
":. c #FCCFA3",
">. c #FBD0A5",
",. c #FBD1A7",
"<. c #F7D2AF",
"1. c #FAD2AC",
"2. c #FBD4AE",
"3. c #FBD5AF",
"4. c #FCD8B5",
"5. c #F3D4BA",
"6. c #F7D7BC",
"7. c #FBD8B8",
"8. c #FCDAB9",
"9. c #FCDBBB",
"0. c #FDDDBE",
"q. c #FDDFC3",
"w. c #F7DFCA",
"e. c #FDE0C5",
"r. c #FDE1C5",
"t. c #FDE1C6",
"y. c #FDE2C7",
"u. c #FEE2C6",
"i. c #FDE3CB",
"p. c #FDE4CB",
"a. c #FEE4CB",
"s. c #FDE4CC",
"d. c #FDE5CC",
"f. c #FDE9D4",
"g. c #FAE8DA",
"h. c #FDECDB",
"j. c #FEEFE0",
"k. c #FEF5EC",
"l. c #FDF6EE",
"z. c #FEF6EE",
"x. c None",
/* pixels */
"x.x.x.x.x.x.x.x.x.x.x.x.x.x.x.x.x.x.x.x.x.x.x.x.",
"x.x.x.x.x.x.x.x.x.x.x.x.x.x.x.x.x.x.x.x.x.x.x.x.",
"x.x.x.x.f f f s d s s x.x.x.x.x.x.x.x.x.x.x.x.x.",
"x.x.x.x.l.l.l.l.l.g.5. .y x.x.x.x.x.x.x.x.x.x.x.",
"x.x.x.x.e.e.q.t.e.a.f.j.w.x w x.x.x.x.x.x.x.x.x.",
"x.x.x.x.a.a.s.s.a.e.q.7.a.h.z x.x.x.x.x.x.x.x.x.",
"x.x.x.x.y y y y i l ^ 7.3.0.6.0 x.x.x.x.x.x.x.x.",
"x.x.x.x.x.x.x.x.x.x.q k 1.&.y.) x.x.x.x.x.x.x.x.",
"x.x.x.x.x.x.x.x.x.x.x.8 L &.:.X.7 x.x.x.x.x.x.x.",
"x.x.x.x.x.x.x.x.x.x.x.x.k &...<.6 x.x.x.x.x.x.x.",
"x.x.x.x.x.x.x.x.x.x.x.x.9 *.' 9.6 x.x.x.x.x.x.x.",
"x.x.x.x.x.x.x.x.x.x.x.x.6 -.! 4.6 x.x.x.x.x.x.x.",
"x.x.x.x.x.x.x.x.x.x.x.x.6 -.H 3.1 x.x.x.x.x.x.x.",
"x.x.x.x.x.x.x.x.x.2 6 6 : :.V ,.: & & & x.x.x.x.",
"x.x.x.x.x.x.x.x.6 P @./ 1 -.n -.1 / +.K & x.x.x.",
"x.x.x.x.x.x.x.x.1 o.D [ _ &.v &._ [ B Q # x.x.x.",
"x.x.x.x.x.x.x.x.: S G c ] O.j O.] c G x & x.x.x.",
"x.x.x.x.x.x.x.x.x.: A E m | b | m E A # x.x.x.x.",
"x.x.x.x.x.x.x.x.x.x.& U ~ J C J ~ U o x.x.x.x.x.",
"x.x.x.x.x.x.x.x.x.x.x.@ R { W { R o x.x.x.x.x.x.",
"x.x.x.x.x.x.x.x.x.x.x.x.o R } R o x.x.x.x.x.x.x.",
"x.x.x.x.x.x.x.x.x.x.x.x.x.o N o x.x.x.x.x.x.x.x.",
"x.x.x.x.x.x.x.x.x.x.x.x.x.x.  x.x.x.x.x.x.x.x.x.",
"x.x.x.x.x.x.x.x.x.x.x.x.x.x.x.x.x.x.x.x.x.x.x.x."
};
