/* XPM */
static const char * object_rotate_left_xpm[] = {
/* columns rows colors chars-per-pixel */
"24 24 145 2 ",
"   c #A14800",
".  c #A44A01",
"X  c #A44B01",
"o  c #A64B01",
"O  c #A74B01",
"+  c #A74C01",
"@  c #AB4D01",
"#  c #AC4D01",
"$  c #AE4D00",
"%  c #AC4E00",
"&  c #AF4F00",
"*  c #B14F00",
"=  c #B14F01",
"-  c #B44F00",
";  c #B35100",
":  c #B35101",
">  c #B35202",
",  c #B45000",
"<  c #B55000",
"1  c #B65100",
"2  c #B75200",
"3  c #B75302",
"4  c #B85200",
"5  c #B95300",
"6  c #BA5300",
"7  c #B95400",
"8  c #BB5400",
"9  c #BC5400",
"0  c #BD5400",
"q  c #BE5500",
"w  c #BF5600",
"e  c #BC5604",
"r  c #C05500",
"t  c #C05600",
"y  c #C35700",
"u  c #C45800",
"i  c #C55800",
"p  c #C65800",
"a  c #C65900",
"s  c #C75900",
"d  c #C55A03",
"f  c #C05906",
"g  c #C85C03",
"h  c #CA6C1F",
"j  c #F57D04",
"k  c #CB6F22",
"l  c #CD742B",
"z  c #D37C34",
"x  c #D47E37",
"c  c #F5800A",
"v  c #F6800D",
"b  c #F88D17",
"n  c #F6891E",
"m  c #F8901E",
"M  c #DA812D",
"N  c #CD8030",
"B  c #F78E29",
"V  c #F7912E",
"C  c #FA9E2B",
"Z  c #E28E3A",
"A  c #E48E3A",
"S  c #E28E3F",
"D  c #F89230",
"F  c #F79838",
"G  c #F7993A",
"H  c #F79A3F",
"J  c #FAA02F",
"K  c #FAA132",
"L  c #DD9557",
"P  c #E29745",
"I  c #E49745",
"U  c #E29F4E",
"Y  c #E39F4E",
"T  c #E39F4F",
"R  c #E09656",
"E  c #E19A5C",
"W  c #F9A548",
"Q  c #FCB143",
"!  c #F8A350",
"~  c #F9A656",
"^  c #FAAB53",
"/  c #F4A459",
"(  c #FBB359",
")  c #E19D64",
"_  c #E6A265",
"`  c #E6A366",
"'  c #E2A26C",
"]  c #E9A568",
"[  c #F9AC61",
"{  c #F9AE63",
"}  c #F9B26C",
"|  c #F9B671",
" . c #FAB674",
".. c #FAB876",
"X. c #F9B878",
"o. c #FDC168",
"O. c #FDC675",
"+. c #FBC07E",
"@. c #E5AE80",
"#. c #F9BE84",
"$. c #FABE84",
"%. c #FBC48F",
"&. c #F8C392",
"*. c #FAC794",
"=. c #FBC895",
"-. c #F0C298",
";. c #F7C799",
":. c #F8C799",
">. c #FBC999",
",. c #FBCA99",
"<. c #FBCA9A",
"1. c #FBCDA0",
"2. c #FCCFA3",
"3. c #FBD1A7",
"4. c #FBD2AC",
"5. c #F8D2AF",
"6. c #FBD4AE",
"7. c #FBD5AF",
"8. c #FCD8B5",
"9. c #F2D4BA",
"0. c #F7D8BC",
"q. c #FBD8B8",
"w. c #FCDAB9",
"e. c #FCDBBB",
"r. c #FDDDBE",
"t. c #FDDFC3",
"y. c #F7DFCA",
"u. c #FDE0C5",
"i. c #FDE1C5",
"p. c #FDE1C6",
"a. c #FDE2C7",
"s. c #FEE2C6",
"d. c #FDE3CB",
"f. c #FDE4CB",
"g. c #FEE4CB",
"h. c #FDE4CC",
"j. c #FDE5CC",
"k. c #FDE9D4",
"l. c #FAE8D9",
"z. c #FDECDB",
"x. c #FEEFE0",
"c. c #FEF5EC",
"v. c #FDF6EE",
"b. c #FEF6EE",
"n. c None",
/* pixels */
"n.n.n.n.n.n.n.n.n.n.n.n.n.n.n.n.n.n.n.n.n.n.n.n.",
"n.n.n.n.n.n.n.n.n.n.n.n.n.n.n.n.n.n.n.n.n.n.n.n.",
"n.n.n.n.n.n.n.n.n.n.n.n.n.a a a a a y y n.n.n.n.",
"n.n.n.n.n.n.n.n.n.n.n.g @.9.l.c.b.b.b.c.n.n.n.n.",
"n.n.n.n.n.n.n.n.n.a x y.x.k.j.i.i.i.i.t.n.n.n.n.",
"n.n.n.n.n.n.n.n.n.z z.d.w.t.i.d.f.d.j.h.n.n.n.n.",
"n.n.n.n.n.n.n.n.a 0.r.6.q.) l f w 9 w 7 n.n.n.n.",
"n.n.n.n.n.n.n.n.' d.>.4.k w n.n.n.n.n.n.n.n.n.n.",
"n.n.n.n.n.n.n.w -.2.>.L w n.n.n.n.n.n.n.n.n.n.n.",
"n.n.n.n.n.n.n.w 5.#.=.k n.n.n.n.n.n.n.n.n.n.n.n.",
"n.n.n.n.n.n.n.w q.{ %.e n.n.n.n.n.n.n.n.n.n.n.n.",
"n.n.n.n.n.n.n.w 8.! $.4 n.n.n.n.n.n.n.n.n.n.n.n.",
"n.n.n.n.n.n.n.7 6.H X.1 n.n.n.n.n.n.n.n.n.n.n.n.",
"n.n.n.n.7 4 4 1 4.V } ; - ; * n.n.n.n.n.n.n.n.n.",
"n.n.n.4 E :.` 3 <.n [ ; ` ;.L & n.n.n.n.n.n.n.n.",
"n.n.n.4 &.D  .] >.v ~ ]  .B / & n.n.n.n.n.n.n.n.",
"n.n.n.1 S G v | >.c ..| c F M @ n.n.n.n.n.n.n.n.",
"n.n.n.n.; A W m X.b ^ m W Z & n.n.n.n.n.n.n.n.n.",
"n.n.n.n.n.* I ( K C K ( P @ n.n.n.n.n.n.n.n.n.n.",
"n.n.n.n.n.n.& U o.Q o.U + n.n.n.n.n.n.n.n.n.n.n.",
"n.n.n.n.n.n.n.+ T O.T o n.n.n.n.n.n.n.n.n.n.n.n.",
"n.n.n.n.n.n.n.n.o N o n.n.n.n.n.n.n.n.n.n.n.n.n.",
"n.n.n.n.n.n.n.n.n.  n.n.n.n.n.n.n.n.n.n.n.n.n.n.",
"n.n.n.n.n.n.n.n.n.n.n.n.n.n.n.n.n.n.n.n.n.n.n.n."
};
