/* XPM */
static const char * zoom_out_xpm[] = {
/* columns rows colors chars-per-pixel */
"24 24 67 1 ",
"  c #4C4D4A",
". c #4D4E4B",
"X c #585A56",
"o c #5A5D58",
"O c #676865",
"+ c #686966",
"@ c #70716E",
"# c #777974",
"$ c #7A7D77",
"% c #7B7D78",
"& c #838580",
"* c #8B8E88",
"= c #8E908B",
"- c #949791",
"; c #9B9E98",
": c #9C9F99",
"> c #9D9F99",
", c #A5A8A2",
"< c #AEB1AA",
"1 c #B2B3B1",
"2 c #B6B9B2",
"3 c #BABDB6",
"4 c #B9BAB8",
"5 c #BABCBA",
"6 c #BCBFB9",
"7 c #BDC0B8",
"8 c #BDC0B9",
"9 c #BEC0BB",
"0 c #BEC1BB",
"q c #D9DAD8",
"w c #DDDEDC",
"e c #DEDEDC",
"r c #E2E2E0",
"t c #E3E3E1",
"y c #E6E7E5",
"u c #E7E8E6",
"i c #E8E8E6",
"p c gray91",
"a c #E9E9E8",
"s c #E9EAE8",
"d c #EAEAE9",
"f c #EBECEB",
"g c #EDEDEB",
"h c #EEEEEE",
"j c #EFEFEF",
"k c #F0F0EF",
"l c #F2F2F1",
"z c #F3F3F1",
"x c gray95",
"c c #F3F3F2",
"v c #F3F4F3",
"b c #F4F4F3",
"n c #F5F5F4",
"m c gray96",
"M c #F6F6F6",
"N c #F6F7F6",
"B c gray97",
"V c #F9F9F9",
"C c #FAFAF9",
"Z c gray98",
"A c #FBFCFB",
"S c #FCFCFB",
"D c gray99",
"F c #FDFDFD",
"G c #FEFEFE",
"H c gray100",
"J c None",
/* pixels */
"JJJJJJJJJJJJJJJJJJJJJJJJ",
"JJJJJJJJJJJJJJJJJJJJJJJJ",
"JJJJJJJJJJJJJJJJJJJJJJJJ",
"JJJJJ68333333333388JJJJJ",
"JJJJ0iAGGGGGGGGGGSy8JJJJ",
"JJJ8dGGZGZGGGAGGZGGd0JJJ",
"JJJ8GZZZZZZMZZZMZZZG8JJJ",
"JJJ3GMMMMMMMMMMMMMMG3JJJ",
"JJJ3GlllllllxxxxlllG3JJJ",
"JJJ2GkbhhhhljjjjkllG2JJJ",
"JJJ<Ghv#%%%%%%%%#bgG<JJJ",
"JJJ,Gil&GGGGGGGG&liG,JJJ",
"JJJ>Stl=AAAAGAAA=vtS>JJJ",
"JJJ-Zwb>;;;;;;;;;MwZ-JJJ",
"JJJ*MqbbbbbbbbvbbbqM*JJJ",
"JJJ&MwwwwwwwwwwwwwwM&JJJ",
"JJJ$MrrrtrrrrrtrrrtM$JJJ",
"JJJ#ddyyyyyyyyyyyydd#JJJ",
"JJJ@5Mhfffdhfffffhv4@JJJ",
"JJJJO1iMBBBMMBBBMy1+JJJJ",
"JJJJJ oXXXXXXXXXXo JJJJJ",
"JJJJJJJJJJJJJJJJJJJJJJJJ",
"JJJJJJJJJJJJJJJJJJJJJJJJ",
"JJJJJJJJJJJJJJJJJJJJJJJJ"
};
