/* XPM */
static const char * zoom_fit_best_xpm[] = {
/* columns rows colors chars-per-pixel */
"24 24 65 1 ",
"  c #4C4D4A",
". c #4D4E4B",
"X c #585A56",
"o c #5A5D58",
"O c #676865",
"+ c #686966",
"@ c #696B66",
"# c #6F716C",
"$ c #70716E",
"% c #757772",
"& c #777974",
"* c #7A7D77",
"= c #7B7E78",
"- c #81847F",
"; c #838580",
": c #8B8E88",
"> c #949791",
", c #979895",
"< c #9A9D97",
"1 c #9D9F99",
"2 c #A0A39D",
"3 c #A5A8A2",
"4 c #A6A9A3",
"5 c #ADB0A9",
"6 c #AEB1AA",
"7 c #B2B3B1",
"8 c #B6B9B2",
"9 c #BABDB6",
"0 c #B9BAB8",
"q c #BABCBA",
"w c #BCBFB9",
"e c #BDC0B8",
"r c #BDC0B9",
"t c #BEC0BB",
"y c #BEC1BB",
"u c #CDCECA",
"i c #DEDEDC",
"p c #E0E0DE",
"a c #E1E2E0",
"s c #E3E3E1",
"d c #E7E8E6",
"f c #E8E8E6",
"g c gray91",
"h c #E9E9E8",
"j c #E9EAE8",
"k c #EAEAE9",
"l c #EDEDEB",
"z c #F0F0EF",
"x c #F5F5F4",
"c c gray96",
"v c #F5F6F5",
"b c #F6F6F6",
"n c #F6F7F6",
"m c gray97",
"M c #F8F8F7",
"N c #F8F8F8",
"B c #F9F9F9",
"V c #FAFAF9",
"C c gray98",
"Z c #FCFCFB",
"A c gray99",
"S c #FDFDFD",
"D c #FEFEFE",
"F c gray100",
"G c None",
/* pixels */
"GGGGGGGGGGGGGGGGGGGGGGGG",
"GGGGGGGGGGGGGGGGGGGGGGGG",
"GGGGGGGGGGGGGGGGGGGGGGGG",
"GGGGGwr9999999999rrGGGGG",
"GGGGyfADDDDDDDDDDDdrGGGG",
"GGGrkDDADCDCDCDDCDDfrGGG",
"GGGrDC,@@@@CC@@@@,CDrGGG",
"GGG9DN#ADD#Cm#DDG#CD9GGG",
"GGG9Dm%D%%%mm%%%D%CD9GGG",
"GGG8DN=D*Cmmmmm*D=mD8GGG",
"GGG6DC---mllllM---MD6GGG",
"GGG3DMNNCmffffmCNNND3GGG",
"GGG1ZsssspsssssssssD1GGG",
"GGG>Ma>>>aiiiip>>>pC>GGG",
"GGG:ma<D<ssassp<D<pm:GGG",
"GGG;vk2D222kd222D2km;GGG",
"GGG*mz3GDD4zz3DDG3zx*GGG",
"GGG&fmu6556mm6556uxk%GGG",
"GGG$qmmCCmCCCmCCCmmq$GGG",
"GGGGO7fmmmmmmmmmmd7OGGGG",
"GGGGG oXXXXXXXXXXo GGGGG",
"GGGGGGGGGGGGGGGGGGGGGGGG",
"GGGGGGGGGGGGGGGGGGGGGGGG",
"GGGGGGGGGGGGGGGGGGGGGGGG"
};
