/* XPM */
static const char *go_next_xpm[] = {
/* columns rows colors chars-per-pixel */
"32 32 192 2 ",
"   c #4A4B48",
".  c #4D4F4B",
"X  c #50514D",
"o  c #535451",
"O  c #535551",
"+  c #535552",
"@  c #545653",
"#  c #555653",
"$  c #555753",
"%  c #565753",
"&  c #565754",
"*  c #545853",
"=  c #575A56",
"-  c #575B56",
";  c #5F625E",
":  c #666863",
">  c #696A65",
",  c #6C6E6A",
"<  c #6E706A",
"1  c #71726E",
"2  c #737572",
"3  c #797A75",
"4  c #797B77",
"5  c #797A78",
"6  c #7A7C78",
"7  c #7B7D78",
"8  c #7A7C79",
"9  c #7B7D7A",
"0  c #7D7E7B",
"q  c #7E7F7C",
"w  c #80827C",
"e  c #80827E",
"r  c #80847F",
"t  c #818380",
"y  c #848482",
"u  c #848682",
"i  c #878885",
"p  c #898B86",
"a  c #8A8B88",
"s  c #8A8C89",
"d  c #8E908B",
"f  c #8F928B",
"g  c #8F908E",
"h  c #91938E",
"j  c #92948E",
"k  c #92958F",
"l  c #929690",
"z  c #979A94",
"x  c #999B97",
"c  c #9B9E98",
"v  c #9D9E98",
"b  c #9D9F98",
"n  c #9C9F99",
"m  c #9DA09A",
"M  c #A0A19B",
"N  c #A0A29C",
"B  c #A0A39D",
"V  c #A1A39D",
"C  c #A1A39E",
"Z  c #A1A49E",
"A  c #A2A49F",
"S  c #A5A8A1",
"D  c #A6A9A1",
"F  c #A5A8A2",
"G  c #A8AAA3",
"H  c #AAABA6",
"J  c #AAABA7",
"K  c #ABACA7",
"L  c #AAAAA8",
"P  c #ABAEA8",
"I  c #ABACAA",
"U  c #ADAEAA",
"Y  c #AEAFAC",
"T  c #AEB1A9",
"R  c #ADB1AA",
"E  c #AEB0AA",
"W  c #AEB1AB",
"Q  c #AFB2AC",
"!  c #B1B3AF",
"~  c #B1B4AE",
"^  c #B2B4AE",
"/  c #B3B6AF",
"(  c #B3B5B1",
")  c #B3B6B0",
"_  c #B4B7B1",
"`  c #B7B9B5",
"'  c #B7BAB4",
"]  c #B8BCB4",
"[  c #B9BCB7",
"{  c #BABCB6",
"}  c #BBBCB6",
"|  c #BABDB7",
" . c #BBBEB7",
".. c #BBBCB8",
"X. c #BBBEB8",
"o. c #BDBEBC",
"O. c #C0C2BC",
"+. c #C1C3BD",
"@. c #C2C3BF",
"#. c #C3C5BE",
"$. c gray77",
"%. c #C9CBC5",
"&. c #CACBC7",
"*. c #CBCEC8",
"=. c #CBCCCA",
"-. c #CECECC",
";. c #CECFCC",
":. c #CDD0C9",
">. c #D1D1CF",
",. c #D2D3D0",
"<. c #D6D7D4",
"1. c #D7D8D5",
"2. c #D9DAD7",
"3. c #D9DAD8",
"4. c #DCDDDA",
"5. c #DCDDDB",
"6. c #DDDEDC",
"7. c #DEDEDC",
"8. c #DEDFDC",
"9. c #DEDFDD",
"0. c #DFDFDD",
"q. c #DFE0DE",
"w. c #E0E1DE",
"e. c #E1E2DF",
"r. c #E1E2E0",
"t. c #E2E3E0",
"y. c #E2E2E1",
"u. c #E2E3E1",
"i. c #E3E4E2",
"p. c #E4E5E3",
"a. c #E5E6E3",
"s. c #E4E5E4",
"d. c #E5E6E4",
"f. c #E6E6E4",
"g. c #E6E7E6",
"h. c #E7E7E6",
"j. c #E7E8E6",
"k. c #E7E8E7",
"l. c #E8E9E7",
"z. c #E9E9E7",
"x. c #E8E9E8",
"c. c #E9E9E8",
"v. c #EAEAE8",
"b. c #EAEBE9",
"n. c #EAEAEA",
"m. c #EBEBEA",
"M. c #EBECEA",
"N. c #ECECEA",
"B. c #EDEDEB",
"V. c #ECEDEC",
"C. c #EEEEEC",
"Z. c #EEEEED",
"A. c #EFEFED",
"S. c #EEEEEE",
"D. c #EFEFEE",
"F. c #EFEFEF",
"G. c #EFF0EF",
"H. c #F0F0EE",
"J. c #F0F0EF",
"K. c #F1F1F1",
"L. c #F1F2F1",
"P. c #F2F2F1",
"I. c #F2F3F1",
"U. c #F3F3F1",
"Y. c gray95",
"T. c #F2F3F2",
"R. c #F3F3F2",
"E. c #F3F3F3",
"W. c #F3F4F3",
"Q. c #F4F4F4",
"!. c #F5F5F4",
"~. c gray96",
"^. c #F5F6F5",
"/. c #F6F6F5",
"(. c #F6F6F6",
"). c #F7F7F6",
"_. c gray97",
"`. c #F7F8F7",
"'. c #F8F8F7",
"]. c #F8F8F8",
"[. c #F8F9F8",
"{. c #F9F9F9",
"}. c #F9FAF9",
"|. c #FAFAF9",
" X c gray98",
".X c #FBFBFB",
"XX c gray99",
"oX c #FCFDFC",
"OX c #FDFDFD",
"+X c #FEFEFD",
"@X c #FEFEFE",
"#X c None",
/* pixels */
"#X#X#X#X#X#X#X#X#X#X#X#X#X#X#X#X#X#X#X#X#X#X#X#X#X#X#X#X#X#X#X#X",
"#X#X#X#X#X#X#X#X#X#X#X#X#X#X#X#X#X#X#X#X#X#X#X#X#X#X#X#X#X#X#X#X",
"#X#X#X#X#X#X#X#X#X#X#X#X#X#X#X#X#X#X#X#X#X#X#X#X#X#X#X#X#X#X#X#X",
"#X#X#X#X#X#X#X#X#X#X#X#X#X#X#X#X#X#X#X#X#X#X#X#X#X#X#X#X#X#X#X#X",
"#X#X#X#X#X#X#X#X#X#X#X#X#X#X#X[ [ ' #X#X#X#X#X#X#X#X#X#X#X#X#X#X",
"#X#X#X#X#X#X#X#X#X#X#X#X#X#X%.'.oXW.$.#X#X#X#X#X#X#X#X#X#X#X#X#X",
"#X#X#X#X#X#X#X#X#X#X#X#X#X[ Y.oXoXoXoX@.#X#X#X#X#X#X#X#X#X#X#X#X",
"#X#X#X#X#X#X#X#X#X#X#X#X#X/ !..X.X.XoXoX..#X#X#X#X#X#X#X#X#X#X#X",
"#X#X#X#X#X#X#X#X#X#X#X#X#XW p..X].].].XXoX` l #X#X#X#X#X#X#X#X#X",
"#X#X#X#X#X#X#X#X#X#X#X#X#X#X~ Y.].(.(.!.XXoX( a #X#X#X#X#X#X#X#X",
"#X#X#X#X#X#X#X#X#X#X#X#X#X#X#XK F.Q.E.E.Q..XoX( r #X#X#X#X#X#X#X",
"#X#X#X#X#X#X#X#X#X#X#X#X#X#X#X#XA V.Q.Y.J.J.].oXY 3 #X#X#X#X#X#X",
"#X#X#X#X#X#X#X#X#X#X#X#X#X#X#X#X#Xx m.Y.H.J.J.!.oXI 1 #X#X#X#X#X",
"#X#X#X#X) Q W #X#X#X#X#XD C C #X#X#Xh h.J.H.Z.Z.).oXI > #X#X#X#X",
"#X#X#X[ Z.oXd.~ #X#X#XW m.oXy.D #X#X#Xa i.H.B.B.B.U.oXJ ; #X#X#X",
"#X#XW l..X'.Z.,.D #XZ d..X`.Z.-.z #X#X#Xw 0.B.v.l.l.Y.oXJ = #X#X",
"#X#XI J.H.B.4.2.Z #Xm G.Z.B.6.1.k #X#X#X< u .XZ.d.d.a.Z.!.: #X#X",
"#X#XK -.6.<.,.#.M #Xx &.6.<.,.X.k #X#X#X8 !.!.p.y.p.p.m.g $ #X#X",
"#X#X#XG #.:.[ m #X#X#Xx ..:._ f #X#X#X3 !.!.q.q.q.y.j.s $ #X#X#X",
"#X#X#X#XC b b #X#X#X#X#Xk d f #X#X#X8 !.W.6.4.6.q.p.i * #X#X#X#X",
"#X#X#X#X#X#X#X#X#X#X#X#X#X#X#X#X#X8 '.Y.2.2.2.4.y.y $ #X#X#X#X#X",
"#X#X#X#X#X#X#X#X#X#X#X#X#X#X#X#X8 `.J.4.4.4.q.p.t $ #X#X#X#X#X#X",
"#X#X#X#X#X#X#X#X#X#X#X#X#X#X#X8 .XY.q.q.q.e.a.e $ #X#X#X#X#X#X#X",
"#X#X#X#X#X#X#X#X#X#X#X#X#X#X8 `.Y.w.w.w.a.a.q * #X#X#X#X#X#X#X#X",
"#X#X#X#X#X#X#X#X#X#X#X#X#X- y.^.s.d.s.d.d.0 $ #X#X#X#X#X#X#X#X#X",
"#X#X#X#X#X#X#X#X#X#X#X#X#X$ Y.V.j.d.m.m.8 $ #X#X#X#X#X#X#X#X#X#X",
"#X#X#X#X#X#X#X#X#X#X#X#X#Xo o.Z.m.Z.m.3 + #X#X#X#X#X#X#X#X#X#X#X",
"#X#X#X#X#X#X#X#X#X#X#X#X#X#X, $.m.=.2   #X#X#X#X#X#X#X#X#X#X#X#X",
"#X#X#X#X#X#X#X#X#X#X#X#X#X#X#XX o . #X#X#X#X#X#X#X#X#X#X#X#X#X#X",
"#X#X#X#X#X#X#X#X#X#X#X#X#X#X#X#X#X#X#X#X#X#X#X#X#X#X#X#X#X#X#X#X",
"#X#X#X#X#X#X#X#X#X#X#X#X#X#X#X#X#X#X#X#X#X#X#X#X#X#X#X#X#X#X#X#X",
"#X#X#X#X#X#X#X#X#X#X#X#X#X#X#X#X#X#X#X#X#X#X#X#X#X#X#X#X#X#X#X#X"
};
