/* XPM */
static const char *go_previous_xpm[] = {
/* columns rows colors chars-per-pixel */
"32 32 188 2 ",
"   c #474945",
".  c #4D4E4B",
"X  c #4E4F4C",
"o  c #525450",
"O  c #545552",
"+  c #545652",
"@  c #555752",
"#  c #565752",
"$  c #5B5D59",
"%  c #636562",
"&  c #6D6F69",
"*  c #6D6F6C",
"=  c #6E706C",
"-  c #737471",
";  c #747873",
":  c #777974",
">  c #777A75",
",  c #787976",
"<  c #787B76",
"1  c #7A7C77",
"2  c #7B7C78",
"3  c #7B7D78",
"4  c #7B7C79",
"5  c #7D7F7B",
"6  c #7C807B",
"7  c #81827E",
"8  c #81827F",
"9  c #818380",
"0  c #838580",
"q  c #848681",
"w  c #858782",
"e  c #848783",
"r  c #858783",
"t  c #868883",
"y  c #868983",
"u  c #888B85",
"i  c #898B86",
"p  c #898A87",
"a  c #898C86",
"s  c #898D86",
"d  c #8B8C86",
"f  c #8D8F8A",
"g  c #8E918B",
"h  c #8F908C",
"j  c #8F918C",
"k  c #91938D",
"l  c #91938F",
"z  c #92948F",
"x  c #939690",
"c  c #949691",
"v  c #969993",
"b  c #979995",
"n  c #989A95",
"m  c #989B95",
"M  c #989B96",
"N  c #999C96",
"B  c #9A9C98",
"V  c #9B9D98",
"C  c #9B9E98",
"Z  c #9DA09A",
"A  c #9EA09B",
"S  c #9EA19B",
"D  c #A0A19C",
"F  c #A1A29E",
"G  c #A1A29F",
"H  c #A3A5A0",
"J  c #A4A6A0",
"K  c #A5A8A3",
"L  c #A6A8A3",
"P  c #A9ABA7",
"I  c #A9ACA5",
"U  c #A9ADA5",
"Y  c #A9ACA6",
"T  c #AAADA6",
"R  c #AAABA8",
"E  c #ABAEA8",
"W  c #ABAEA9",
"Q  c #AEB1A9",
"!  c #B0B3AD",
"~  c #B1B4AF",
"^  c #B2B6AF",
"/  c #B1B4B0",
"(  c #B1B5B0",
")  c #B5B7B2",
"_  c #B7B9B3",
"`  c #B7BAB5",
"'  c #B8BBB5",
"]  c #B9BBB5",
"[  c #B8BAB7",
"{  c #BABEB5",
"}  c #B9BCB6",
"|  c #BABDB6",
" . c #BFBFBE",
".. c #C1C1BE",
"X. c #C3C3C2",
"o. c #C3C4C0",
"O. c #C4C5C3",
"+. c #C6C6C4",
"@. c #C8CAC5",
"#. c #C9C9C7",
"$. c #C9CCC7",
"%. c #CBCEC8",
"&. c #CDCECB",
"*. c #CDCFCB",
"=. c #CDD0CB",
"-. c #CED0CB",
";. c #CFD0CB",
":. c #CDD0CC",
">. c #CED0CC",
",. c #CFD1CC",
"<. c #CFD0CD",
"1. c #D0D1CD",
"2. c #D1D1CF",
"3. c #D6D7D4",
"4. c #D7D7D5",
"5. c #D7D8D6",
"6. c #D9DAD8",
"7. c #DCDDDA",
"8. c #DCDDDB",
"9. c #DDDEDC",
"0. c #DEDEDC",
"q. c #DEDFDC",
"w. c #DEDFDD",
"e. c #DFE0DE",
"r. c #DFE1DF",
"t. c #E0E1DE",
"y. c #E0E0DF",
"u. c #E0E1DF",
"i. c #E1E2DF",
"p. c #E2E3E0",
"a. c #E2E3E1",
"s. c #E2E3E2",
"d. c #E3E3E2",
"f. c #E3E4E2",
"g. c #E4E5E2",
"h. c #E4E5E3",
"j. c #E5E5E3",
"k. c #E5E6E3",
"l. c #E5E6E4",
"z. c #E5E6E5",
"x. c #E6E6E4",
"c. c #E6E7E5",
"v. c #E7E7E6",
"b. c #E7E8E6",
"n. c #E7E8E7",
"m. c #E8E9E7",
"M. c #E9E9E7",
"N. c #E9E9E8",
"B. c #E9EAE8",
"V. c #EAEBE9",
"C. c #EAEAEA",
"Z. c #EBEBEA",
"A. c #ECECEA",
"S. c #EDEDEB",
"D. c #EDEDEC",
"F. c #EDEEED",
"G. c #EEEEED",
"H. c #EEEFED",
"J. c #EFEFED",
"K. c #EEEEEE",
"L. c #F0F0EE",
"P. c #F0F0EF",
"I. c #F1F1EF",
"U. c #F1F1F0",
"Y. c #F1F1F1",
"T. c #F1F2F0",
"R. c #F2F2F0",
"E. c #F3F3F2",
"W. c #F3F3F3",
"Q. c #F5F5F4",
"!. c gray96",
"~. c #F6F6F5",
"^. c #F6F6F6",
"/. c #F6F7F6",
"(. c gray97",
"). c #F7F8F7",
"_. c #F8F8F7",
"`. c #F8F8F8",
"'. c #F9F9F8",
"]. c #F9F9F9",
"[. c #F9FAF9",
"{. c gray98",
"}. c #FBFBFB",
"|. c gray99",
" X c #FDFDFD",
".X c #FEFEFE",
"XX c gray100",
"oX c None",
/* pixels */
"oXoXoXoXoXoXoXoXoXoXoXoXoXoXoXoXoXoXoXoXoXoXoXoXoXoXoXoXoXoXoXoX",
"oXoXoXoXoXoXoXoXoXoXoXoXoXoXoXoXoXoXoXoXoXoXoXoXoXoXoXoXoXoXoXoX",
"oXoXoXoXoXoXoXoXoXoXoXoXoXoXoXoXoXoXoXoXoXoXoXoXoXoXoXoXoXoXoXoX",
"oXoXoXoXoXoXoXoXoXoXoXoXoXoXoXoXoXoXoXoXoXoXoXoXoXoXoXoXoXoXoXoX",
"oXoXoXoXoXoXoXoXoXoXoXoXoXoX| } | oXoXoXoXoXoXoXoXoXoXoXoXoXoXoX",
"oXoXoXoXoXoXoXoXoXoXoXoXoX%./..X{.o.oXoXoXoXoXoXoXoXoXoXoXoXoXoX",
"oXoXoXoXoXoXoXoXoXoXoXoX,..X X}..XU.I oXoXoXoXoXoXoXoXoXoXoXoXoX",
"oXoXoXoXoXoXoXoXoXoXoX*..X.X}.}.{.Q.J oXoXoXoXoXoXoXoXoXoXoXoXoX",
"oXoXoXoXoXoXoXoXoX] ,..X}.`.`.`.{.p.D oXoXoXoXoXoXoXoXoXoXoXoXoX",
"oXoXoXoXoXoXoXoX_ *..X{.Q.`.`.Q.U.W oXoXoXoXoXoXoXoXoXoXoXoXoXoX",
"oXoXoXoXoXoXoX) <..X`.U.!.W.Q.I.R oXoXoXoXoXoXoXoXoXoXoXoXoXoXoX",
"oXoXoXoXoXoX( *..X{.U.U.U.U.K.K oXoXoXoXoXoXoXoXoXoXoXoXoXoXoXoX",
"oXoXoXoXoX! <..XQ.K.I.J.E.A.H oXoXoXoXoXoXoXoXoXoXoXoXoXoXoXoXoX",
"oXoXoXoXQ ,..XQ.K.K.K.I.B.D oXoXoXV M M oXoXoXoXoXg a a oXoXoXoX",
"oXoXoXE ,..XU.A.A.A.J.c.V oXoXoXK B..Xe.C oXoXoXV v.|.q.k oXoXoX",
"oXoXI 1..XU.B.B.m.K.f.b oXoXoXN f.|.Q.K.*.g oXa y.{._.K.#.8 oXoX",
"oXoXI Q.K.v.v.v.K.}.D a oXoXoXc K.J.A.q.5.a oXw K.K.A.e.5.1 oXoX",
"oXoXA ` B.h.p.p.f.Q.`.x oXoXoXk +.e.4.1.` a oXw ..q.5.1.! 3 oXoX",
"oXoXoXb ( B.p.9.e.e.Q./.j oXoXoXk ] $.! t oXoXoX8 ! #.I 1 oXoXoX",
"oXoXoXoXh R v.r.7.q.9.E.`.a oXoXoXa w t oXoXoXoXoX5 : : oXoXoXoX",
"oXoXoXoXoXw H f.9.6.6.6.I./.t oXoXoXoXoXoXoXoXoXoXoXoXoXoXoXoXoX",
"oXoXoXoXoXoX4 M f.e.7.q.7.I.{.8 oXoXoXoXoXoXoXoXoXoXoXoXoXoXoXoX",
"oXoXoXoXoXoXoX: k f.y.e.e.e.I.{.5 oXoXoXoXoXoXoXoXoXoXoXoXoXoXoX",
"oXoXoXoXoXoXoXoX= a f.f.i.y.y.I.{.4 oXoXoXoXoXoXoXoXoXoXoXoXoXoX",
"oXoXoXoXoXoXoXoXoX% 9 v.v.f.v.f.Q.c.# oXoXoXoXoXoXoXoXoXoXoXoXoX",
"oXoXoXoXoXoXoXoXoXoX$ , v.B.m.c.A.{.# oXoXoXoXoXoXoXoXoXoXoXoXoX",
"oXoXoXoXoXoXoXoXoXoXoXo - v.K.B.K.o.+ oXoXoXoXoXoXoXoXoXoXoXoXoX",
"oXoXoXoXoXoXoXoXoXoXoXoX  *  .B.X.= oXoXoXoXoXoXoXoXoXoXoXoXoXoX",
"oXoXoXoXoXoXoXoXoXoXoXoXoXoXX + X oXoXoXoXoXoXoXoXoXoXoXoXoXoXoX",
"oXoXoXoXoXoXoXoXoXoXoXoXoXoXoXoXoXoXoXoXoXoXoXoXoXoXoXoXoXoXoXoX",
"oXoXoXoXoXoXoXoXoXoXoXoXoXoXoXoXoXoXoXoXoXoXoXoXoXoXoXoXoXoXoXoX",
"oXoXoXoXoXoXoXoXoXoXoXoXoXoXoXoXoXoXoXoXoXoXoXoXoXoXoXoXoXoXoXoX"
};
