/* XPM */
static const char *object_rotate_left_xpm[] = {
/* columns rows colors chars-per-pixel */
"32 32 219 2 ",
"   c #994400",
".  c #A04700",
"X  c #A24800",
"o  c #A34800",
"O  c #A54900",
"+  c #A54A00",
"@  c #A74A00",
"#  c #A84B00",
"$  c #AA4C00",
"%  c #AB4C00",
"&  c #AC4C00",
"*  c #AC4D00",
"=  c #B04E00",
"-  c #B14F00",
";  c #B34F00",
":  c #AE5102",
">  c #B45000",
",  c #B55100",
"<  c #B65100",
"1  c #B75200",
"2  c #B55405",
"3  c #B65505",
"4  c #B85200",
"5  c #B95200",
"6  c #B95300",
"7  c #BA5300",
"8  c #BB5300",
"9  c #BC5400",
"0  c #BD5400",
"q  c #BF5500",
"w  c #BB5604",
"e  c #BF5805",
"r  c #B25509",
"t  c #BB590B",
"y  c #C15500",
"u  c #C05600",
"i  c #C15600",
"p  c #C25600",
"a  c #C25700",
"s  c #C35700",
"d  c #C55600",
"f  c #C45700",
"g  c #C75A00",
"h  c #C95A00",
"j  c #CB5A00",
"k  c #CB5B00",
"l  c #CC5B00",
"z  c #CD5B00",
"x  c #CC5C00",
"c  c #CE5C00",
"v  c #CF5D00",
"b  c #C65D08",
"n  c #CE6918",
"m  c #D36F1D",
"M  c #F57B03",
"N  c #F57D07",
"B  c #F57E09",
"V  c #C47426",
"C  c #CF7221",
"Z  c #CD7022",
"A  c #C87027",
"S  c #C8732C",
"D  c #D1752B",
"F  c #D6782C",
"G  c #D6792E",
"H  c #DB7E28",
"J  c #DB7F29",
"K  c #DD7F28",
"L  c #D57D34",
"P  c #D57E36",
"I  c #F68008",
"U  c #F6800D",
"Y  c #F6820C",
"T  c #F68211",
"R  c #F58415",
"E  c #F78A14",
"W  c #F68518",
"Q  c #F6871B",
"!  c #F78C18",
"~  c #F9941F",
"^  c #DD8129",
"/  c #DC8430",
"(  c #DD8530",
")  c #DC8935",
"_  c #DE8A35",
"`  c #DC8F3C",
"'  c #DD8F3C",
"]  c #F68B22",
"[  c #F68C26",
"{  c #F78C26",
"}  c #F99623",
"|  c #F7902C",
" . c #F6912D",
".. c #FA9E2B",
"X. c #F69434",
"o. c #F79637",
"O. c #F79A3E",
"+. c #FAA02E",
"@. c #FBAC3E",
"#. c #CD8246",
"$. c #D18446",
"%. c #D98741",
"&. c #DB8C46",
"*. c #DC9442",
"=. c #DD9442",
"-. c #DC9545",
";. c #DD904F",
":. c #F89A40",
">. c #F89B41",
",. c #F89E42",
"<. c #F89E47",
"1. c #F8A04B",
"2. c #F9A64B",
"3. c #F8A655",
"4. c #FAAD54",
"5. c #F9A859",
"6. c #F9AA5E",
"7. c #F9AB5F",
"8. c #FBB55D",
"9. c #E2A067",
"0. c #E4A56F",
"q. c #F9AC62",
"w. c #F9AE64",
"e. c #FCBD66",
"r. c #F9B16A",
"t. c #F9B16B",
"y. c #E9AB73",
"u. c #EBAB72",
"i. c #EFAE70",
"p. c #E8AA74",
"a. c #E7AB7A",
"s. c #E4AD7D",
"d. c #E6AD7C",
"f. c #E7AD7C",
"g. c #F9B573",
"h. c #FAB674",
"j. c #FAB97A",
"k. c #FABB7E",
"l. c #FDC676",
"z. c #E3AF83",
"x. c #E6B183",
"c. c #ECB482",
"v. c #ECBA8E",
"b. c #FABC81",
"n. c #FABD81",
"m. c #FAC088",
"M. c #FAC188",
"N. c #FAC28A",
"B. c #FBC28B",
"V. c #FBC48E",
"C. c #FBC590",
"Z. c #FBC591",
"A. c #FBC692",
"S. c #FBCB9D",
"D. c #FBCC9E",
"F. c #FCCC9E",
"G. c #FBCDA0",
"H. c #F8CDA3",
"J. c #FBCEA3",
"K. c #F0C9A9",
"L. c #F4CEAC",
"P. c #FBD0A6",
"I. c #FCD1A7",
"U. c #FBD1A8",
"Y. c #FBD2A8",
"T. c #FBD2AA",
"R. c #FCD1A8",
"E. c #FCD2A9",
"W. c #F9D1AD",
"Q. c #FBD5B1",
"!. c #FCD5B0",
"~. c #FCD6B1",
"^. c #FCD6B2",
"/. c #FDD6B2",
"(. c #F8D7B7",
"). c #FCD8B4",
"_. c #FCD9B7",
"`. c #F7D7B8",
"'. c #FCD9B8",
"]. c #FCDAB8",
"[. c #FDDAB9",
"{. c #FCDBBC",
"}. c #FBDDBC",
"|. c #FCDCBC",
" X c #FDDCBC",
".X c #FDDDBD",
"XX c #FDDDBE",
"oX c #F7DEC7",
"OX c #F8DBC2",
"+X c #FADEC3",
"@X c #FDDFC1",
"#X c #FEDEC1",
"$X c #FDDEC2",
"%X c #F7DFCB",
"&X c #FDE0C1",
"*X c #FDE0C4",
"=X c #FDE0C5",
"-X c #FDE1C5",
";X c #FDE1C6",
":X c #FDE1C7",
">X c #FEE1C7",
",X c #FCE3CA",
"<X c #FDE3CA",
"1X c #FDE4CB",
"2X c #FDE4CD",
"3X c #FDE6CF",
"4X c #FDE7D1",
"5X c #FCE9D6",
"6X c #FDEAD7",
"7X c #FEECDA",
"8X c #FEEEDF",
"9X c #FCEFE4",
"0X c #FDF0E3",
"qX c #FDF2E6",
"wX c #FEF2E6",
"eX c #FFF8F1",
"rX c #FFF8F2",
"tX c #FFF8F3",
"yX c None",
/* pixels */
"yXyXyXyXyXyXyXyXyXyXyXyXyXyXyXyXyXyXyXyXyXyXyXyXyXyXyXyXyXyXyXyX",
"yXyXyXyXyXyXyXyXyXyXyXyXyXyXyXyXyXyXc c k c c h c k z h yXyXyXyX",
"yXyXyXyXyXyXyXyXyXyXyXyXyXyXyXc m a.K.,X9XrXrXrXrXrXrXeXyXyXyXyX",
"yXyXyXyXyXyXyXyXyXyXyXyXyXyXz a.wXwX0X5X3X:X:X:X:X:X:X:XyXyXyXyX",
"yXyXyXyXyXyXyXyXyXyXyXyXk F oXwX,X{. X X|.|. X X X X'.}.yXyXyXyX",
"yXyXyXyXyXyXyXyXyXyXyXyXF 0X3X~.Q.Q.~.~.~.Q.~.~.~.~.~.Q.yXyXyXyX",
"yXyXyXyXyXyXyXyXyXyXyXh +X,XI.I.Y.E.).'. X&X&X$X&X$X$X$XyXyXyXyX",
"yXyXyXyXyXyXyXyXyXyXg 0.7XD.D.D.Y.'.c.;.D b a a a a a a yXyXyXyX",
"yXyXyXyXyXyXyXyXyXyXn 5XE.Z.Z.D.H.P d yXyXyXyXyXyXyXyXyXyXyXyXyX",
"yXyXyXyXyXyXyXyXyXyX9.1XM.M.N.Y.P a yXyXyXyXyXyXyXyXyXyXyXyXyXyX",
"yXyXyXyXyXyXyXyXyXd v._.k.k.Z.u.a yXyXyXyXyXyXyXyXyXyXyXyXyXyXyX",
"yXyXyXyXyXyXyXyXyXa L.F.h.h.Z.%.yXyXyXyXyXyXyXyXyXyXyXyXyXyXyXyX",
"yXyXyXyXyXyXyXyXyXa +Xb.r.r.Z.Z yXyXyXyXyXyXyXyXyXyXyXyXyXyXyXyX",
"yXyXyXyXyXyXyXyXyX0 4Xq.6.6.Z.u yXyXyXyXyXyXyXyXyXyXyXyXyXyXyXyX",
"yXyXyXyXyXyXyXyXyX0 3X3.3.3.M.6 yXyXyXyXyXyXyXyXyXyXyXyXyXyXyXyX",
"yXyXyXyXyXyXyXyXyX0 3X1.1.1.b.6 yXyXyXyXyXyXyXyXyXyXyXyXyXyXyXyX",
"yXyXyXyXyXyXyXyXyX8 ,X>.>.>.j.5 yXyXyXyXyXyXyXyXyXyXyXyXyXyXyXyX",
"yXyXyXyXw $.s.A 5 5 ,Xo.o.o.h., , S s.#.2 yXyXyXyXyXyXyXyXyXyXyX",
"yXyXyXyXx.E.M.'.p.5 &X|  .| t., p.'.M.Y.x.yXyXyXyXyXyXyXyXyXyXyX",
"yXyXyXt (.o.]  .P.y.$X] ] ] w.p.P. .] X.(.r yXyXyXyXyXyXyXyXyXyX",
"yXyXyX2 W.>.R W [ H.$XW W W M.J.[ W W [ i.: yXyXyXyXyXyXyXyXyXyX",
"yXyXyXyX&.5.T U U W F.U U U q.W U U T <.Z yXyXyXyXyXyXyXyXyXyXyX",
"yXyXyXyX, K O.I M M R M M M B M M B O.H * yXyXyXyXyXyXyXyXyXyXyX",
"yXyXyXyXyX- ^ ,.U I I I I I I I U ,.^ $ yXyXyXyXyXyXyXyXyXyXyXyX",
"yXyXyXyXyXyX- / 2.! E E E E E ! 2./ $ yXyXyXyXyXyXyXyXyXyXyXyXyX",
"yXyXyXyXyXyXyX* ) 4.} ~ ~ ~ } 4.) @ yXyXyXyXyXyXyXyXyXyXyXyXyXyX",
"yXyXyXyXyXyXyXyX$ ` 8.+...+.8.` @ yXyXyXyXyXyXyXyXyXyXyXyXyXyXyX",
"yXyXyXyXyXyXyXyXyX@ =.e.@.e.=.X yXyXyXyXyXyXyXyXyXyXyXyXyXyXyXyX",
"yXyXyXyXyXyXyXyXyXyXX -.l.-.X yXyXyXyXyXyXyXyXyXyXyXyXyXyXyXyXyX",
"yXyXyXyXyXyXyXyXyXyXyX. V . yXyXyXyXyXyXyXyXyXyXyXyXyXyXyXyXyXyX",
"yXyXyXyXyXyXyXyXyXyXyXyX  yXyXyXyXyXyXyXyXyXyXyXyXyXyXyXyXyXyXyX",
"yXyXyXyXyXyXyXyXyXyXyXyXyXyXyXyXyXyXyXyXyXyXyXyXyXyXyXyXyXyXyXyX"
};
