/* XPM */
static const char *object_rotate_right_xpm[] = {
/* columns rows colors chars-per-pixel */
"32 32 222 2 ",
"   c #994400",
".  c #A04700",
"X  c #A24800",
"o  c #A34800",
"O  c #A54900",
"+  c #A54A00",
"@  c #A74A00",
"#  c #A84B00",
"$  c #AA4C00",
"%  c #AB4C00",
"&  c #AC4C00",
"*  c #AC4D00",
"=  c #B04E00",
"-  c #B14F00",
";  c #B34F00",
":  c #B45000",
">  c #B65100",
",  c #B65200",
"<  c #B75200",
"1  c #B65202",
"2  c #B05205",
"3  c #B55404",
"4  c #B85200",
"5  c #B95200",
"6  c #B95300",
"7  c #BA5300",
"8  c #BB5300",
"9  c #BC5400",
"0  c #BD5400",
"q  c #BF5500",
"w  c #BD5805",
"e  c #BF5907",
"r  c #B3550B",
"t  c #BA5809",
"y  c #C05600",
"u  c #C15600",
"i  c #C25600",
"p  c #C25700",
"a  c #C35700",
"s  c #C55600",
"d  c #C95900",
"f  c #C95A00",
"g  c #CB5A00",
"h  c #CB5B00",
"j  c #CC5B00",
"k  c #CD5B00",
"l  c #CC5C00",
"z  c #CE5C00",
"x  c #CF5D00",
"c  c #C65D08",
"v  c #CD6817",
"b  c #D56F1E",
"n  c #F57B03",
"m  c #F57D07",
"M  c #F57E09",
"N  c #C46E27",
"B  c #C47426",
"V  c #CC742C",
"C  c #D37421",
"Z  c #D1752B",
"A  c #D5772B",
"S  c #D0782E",
"D  c #D6782C",
"F  c #DB7E28",
"G  c #DB7F29",
"H  c #DD7F28",
"J  c #F68008",
"K  c #F6800D",
"L  c #F6820C",
"P  c #F68211",
"I  c #F58415",
"U  c #F78A14",
"Y  c #F68518",
"T  c #F6871B",
"R  c #F78C18",
"E  c #F9941F",
"W  c #DD8129",
"Q  c #DC8430",
"!  c #DD8530",
"~  c #DC8935",
"^  c #DE8A35",
"/  c #D68038",
"(  c #D6813A",
")  c #DC8F3C",
"_  c #DD8F3C",
"`  c #F68B22",
"'  c #F68C26",
"]  c #F78C26",
"[  c #F99623",
"{  c #F7902C",
"}  c #F6912D",
"|  c #FA9E2B",
" . c #F79434",
".. c #F79637",
"X. c #F79A3E",
"o. c #FAA02E",
"O. c #FBAC3E",
"+. c #CD8246",
"@. c #D18446",
"#. c #DC9442",
"$. c #DD9442",
"%. c #DC9545",
"&. c #DD904F",
"*. c #DA9150",
"=. c #DC9252",
"-. c #F89A41",
";. c #F89B41",
":. c #F89E42",
">. c #F89E47",
",. c #E0995B",
"<. c #F8A04B",
"1. c #F9A64B",
"2. c #F8A655",
"3. c #FAAD54",
"4. c #F9AA5E",
"5. c #F9AB5F",
"6. c #FBB55D",
"7. c #E3A269",
"8. c #F9AB60",
"9. c #F9AE64",
"0. c #F0AE6F",
"q. c #FCBD66",
"w. c #F9B16A",
"e. c #F9B16B",
"r. c #E9AA73",
"t. c #E9AB73",
"y. c #E8AA74",
"u. c #E8AB74",
"i. c #E8AC77",
"p. c #E7AB7A",
"a. c #E4AD7C",
"s. c #E7AD7C",
"d. c #E6AD7D",
"f. c #F9B573",
"g. c #FAB674",
"h. c #F9B777",
"j. c #FAB777",
"k. c #FAB97A",
"l. c #FABB7E",
"z. c #FDC676",
"x. c #E4B083",
"c. c #E5B083",
"v. c #ECB482",
"b. c #EDB583",
"n. c #FABC81",
"m. c #F0BB8B",
"M. c #FAC088",
"N. c #FAC188",
"B. c #FBC18B",
"V. c #FAC38B",
"C. c #FAC48E",
"Z. c #FBC48E",
"A. c #FBC692",
"S. c #F7C698",
"D. c #FBCA9B",
"F. c #FBCB9C",
"G. c #FBCB9D",
"H. c #FBCB9E",
"J. c #FBCDA0",
"K. c #FBCFA3",
"L. c #FBCFA4",
"P. c #FCCFA4",
"I. c #F0C9A9",
"U. c #FBD0A6",
"Y. c #FCD0A6",
"T. c #FCD1A7",
"R. c #F8D0A8",
"E. c #FBD1A8",
"W. c #FBD2AA",
"Q. c #FCD2A9",
"!. c #F8D1AD",
"~. c #FCD5AF",
"^. c #FBD5B1",
"/. c #FBD7B2",
"(. c #FCD5B0",
"). c #FCD6B1",
"_. c #FCD6B2",
"`. c #FDD6B2",
"'. c #F8D7B7",
"]. c #FCD8B4",
"[. c #F7D6B8",
"{. c #F7D9BE",
"}. c #FCD9B8",
"|. c #FCDAB8",
" X c #FDDAB9",
".X c #FDDBBA",
"XX c #FCDBBC",
"oX c #FBDDBC",
"OX c #FCDCBC",
"+X c #FDDCBC",
"@X c #FDDDBD",
"#X c #FDDDBE",
"$X c #FCDEBF",
"%X c #F7DEC7",
"&X c #FDDFC1",
"*X c #FEDEC1",
"=X c #FDDEC2",
"-X c #F7DFCB",
";X c #FDE0C1",
":X c #FDE0C4",
">X c #FDE0C5",
",X c #FDE1C5",
"<X c #FDE1C6",
"1X c #FDE1C7",
"2X c #FEE1C7",
"3X c #FBE2CA",
"4X c #FDE3C9",
"5X c #FCE3CA",
"6X c #FDE3CA",
"7X c #FDE6CF",
"8X c #FDE9D4",
"9X c #FDEAD7",
"0X c #FEEEDF",
"qX c #FCEFE4",
"wX c #FDF0E3",
"eX c #FDF2E6",
"rX c #FEF2E6",
"tX c #FEF2E7",
"yX c #FFF8F1",
"uX c #FFF8F2",
"iX c #FFF8F3",
"pX c None",
/* pixels */
"pXpXpXpXpXpXpXpXpXpXpXpXpXpXpXpXpXpXpXpXpXpXpXpXpXpXpXpXpXpXpXpX",
"pXpXpXpXg g g j l l k k k k pXpXpXpXpXpXpXpXpXpXpXpXpXpXpXpXpXpX",
"pXpXpXpXiXiXiXiXiXiXiXqX3XI.s.b k pXpXpXpXpXpXpXpXpXpXpXpXpXpXpX",
"pXpXpXpX,X,X,X,X,X,X,X7X9XwXrXrXp.j pXpXpXpXpXpXpXpXpXpXpXpXpXpX",
"pXpXpXpXoXXX+X+X+X+X+X+XoX+X+X5XrX%XD j pXpXpXpXpXpXpXpXpXpXpXpX",
"pXpXpXpX^.(.(.(.(././.(.(.(.^.(.(.7XwXD pXpXpXpXpXpXpXpXpXpXpXpX",
"pXpXpXpX*X*X:X:X:X+X:X+X}.|.Q.Q.Q.T.4X{.g pXpXpXpXpXpXpXpXpXpXpX",
"pXpXpXpXp p p p p a c Z &.v.}.Q.G.G.G.8X7.g pXpXpXpXpXpXpXpXpXpX",
"pXpXpXpXpXpXpXpXpXpXpXpXpXp / R.G.A.A.K.3Xv pXpXpXpXpXpXpXpXpXpX",
"pXpXpXpXpXpXpXpXpXpXpXpXpXpXp / /.V.M.M.+X,.pXpXpXpXpXpXpXpXpXpX",
"pXpXpXpXpXpXpXpXpXpXpXpXpXpXpXp b.G.l.l.U.i.s pXpXpXpXpXpXpXpXpX",
"pXpXpXpXpXpXpXpXpXpXpXpXpXpXpXpX=.T.g.h.C.m.p pXpXpXpXpXpXpXpXpX",
"pXpXpXpXpXpXpXpXpXpXpXpXpXpXpXpXS ^.w.w.h.S.0 pXpXpXpXpXpXpXpXpX",
"pXpXpXpXpXpXpXpXpXpXpXpXpXpXpXpXp +X5.5.8.D.p pXpXpXpXpXpXpXpXpX",
"pXpXpXpXpXpXpXpXpXpXpXpXpXpXpXpX9 +X2.2.2.C.0 pXpXpXpXpXpXpXpXpX",
"pXpXpXpXpXpXpXpXpXpXpXpXpXpXpXpX9 ,X<.<.<.n.0 pXpXpXpXpXpXpXpXpX",
"pXpXpXpXpXpXpXpXpXpXpXpXpXpXpXpX1 3X;.;.X.k.9 pXpXpXpXpXpXpXpXpX",
"pXpXpXpXpXpXpXpXpXpXpX3 +.d.N 1 1 <X......g.4 4 V d.@.w pXpXpXpX",
"pXpXpXpXpXpXpXpXpXpXpXc.R.N.}.y.: :X{ { { w.1 r.}.N.Q.c.pXpXpXpX",
"pXpXpXpXpXpXpXpXpXpXr [. .` } E.r.:X` ` ` 9.t.T.} ` ..'.t pXpXpX",
"pXpXpXpXpXpXpXpXpXpX2 !.-.T I ] K.+XT I Y n.P.] I T ] 0.1 pXpXpX",
"pXpXpXpXpXpXpXpXpXpXpX*.h.P M L T K.L L P 8.T K M P >.C pXpXpXpX",
"pXpXpXpXpXpXpXpXpXpXpX& F X.M n n I n n n M m m M X.H - pXpXpXpX",
"pXpXpXpXpXpXpXpXpXpXpXpX$ W ;.L m J J J M J M J :.W - pXpXpXpXpX",
"pXpXpXpXpXpXpXpXpXpXpXpXpX$ ! 1.U U U U U U R 1.! - pXpXpXpXpXpX",
"pXpXpXpXpXpXpXpXpXpXpXpXpXpXO ^ 3.[ E [ [ [ 3.^ & pXpXpXpXpXpXpX",
"pXpXpXpXpXpXpXpXpXpXpXpXpXpXpXO _ 6.o.| | 6._ # pXpXpXpXpXpXpXpX",
"pXpXpXpXpXpXpXpXpXpXpXpXpXpXpXpXX $.q.O.q.$.O pXpXpXpXpXpXpXpXpX",
"pXpXpXpXpXpXpXpXpXpXpXpXpXpXpXpXpXX %.z.%.o pXpXpXpXpXpXpXpXpXpX",
"pXpXpXpXpXpXpXpXpXpXpXpXpXpXpXpXpXpXX B X pXpXpXpXpXpXpXpXpXpXpX",
"pXpXpXpXpXpXpXpXpXpXpXpXpXpXpXpXpXpXpX  pXpXpXpXpXpXpXpXpXpXpXpX",
"pXpXpXpXpXpXpXpXpXpXpXpXpXpXpXpXpXpXpXpXpXpXpXpXpXpXpXpXpXpXpXpX"
};
