/* XPM */
static const char *zoom_in_xpm[] = {
/* columns rows colors chars-per-pixel */
"32 32 134 2 ",
"   c #202020",
".  c #4E514D",
"X  c #50524E",
"o  c #555753",
"O  c #585A56",
"+  c #595B57",
"@  c #5B5D59",
"#  c #5B5D5A",
"$  c #646662",
"%  c #696B67",
"&  c #6C6E6B",
"*  c #6E706C",
"=  c #71736F",
"-  c #727470",
";  c #727570",
":  c #737670",
">  c #757672",
",  c #777A75",
"<  c #797B76",
"1  c #7B7D78",
"2  c #7C7E7A",
"3  c #80827D",
"4  c #82847F",
"5  c #838580",
"6  c #868983",
"7  c #888B85",
"8  c #8D908A",
"9  c #8E928B",
"0  c #949690",
"q  c #969892",
"w  c #989A94",
"e  c #9A9C96",
"r  c #9A9D97",
"t  c #9B9D97",
"y  c #9C9F99",
"u  c #A1A49E",
"i  c #A2A59F",
"p  c #A2A5A0",
"a  c #A8AAA4",
"s  c #A9ABA5",
"d  c #ACAFA9",
"f  c #AEB1AB",
"g  c #B0B3AC",
"h  c #B5B8B1",
"j  c #B7B9B3",
"k  c #B7BAB3",
"l  c #BABDB6",
"z  c #BBBEB7",
"x  c #BBBEB8",
"c  c #BCBEB8",
"v  c #BCBFB8",
"b  c #BCBFB9",
"n  c #BDC0B9",
"m  c #BEC0B9",
"M  c #BEC1B9",
"N  c #BDC1BA",
"B  c #BFC0BA",
"V  c #BFC2BB",
"C  c #BFC2BC",
"Z  c #C0C3BC",
"A  c #C1C4BE",
"S  c #C3C6BE",
"D  c #C7C7C6",
"F  c #C7C8C6",
"G  c #CCCDCC",
"H  c #D0D1D0",
"J  c #D9DAD8",
"K  c #DBDCDA",
"L  c #DCDDDA",
"P  c #DDDEDB",
"I  c #DDDEDC",
"U  c #DEDFDE",
"Y  c #DFE0DD",
"T  c #E0E1DE",
"R  c #E1E2E0",
"E  c #E2E3E1",
"W  c #E3E4E2",
"Q  c #E5E5E4",
"!  c #E5E6E4",
"~  c #E6E7E5",
"^  c #E8E9E7",
"/  c #E9E9E7",
"(  c #E9EAE8",
")  c #EAEAE8",
"_  c #EAEAE9",
"`  c #EAEBEA",
"'  c gray92",
"]  c #EBECEA",
"[  c #ECECEB",
"{  c #EDEDEB",
"}  c #ECECEC",
"|  c #EDEEEC",
" . c #EDEEED",
".. c #EEEEEC",
"X. c #EEEFED",
"o. c #EEEFEE",
"O. c #EFEFEE",
"+. c #EFF0EE",
"@. c #EFF0EF",
"#. c #F0F0EF",
"$. c #F1F1EF",
"%. c gray94",
"&. c #F1F1F1",
"*. c #F2F2F1",
"=. c gray95",
"-. c #F2F3F2",
";. c #F3F3F2",
":. c #F3F3F3",
">. c #F3F4F3",
",. c #F4F4F3",
"<. c #F4F4F4",
"1. c #F5F5F4",
"2. c #F5F6F5",
"3. c #F6F6F6",
"4. c #F6F7F6",
"5. c #F7F7F6",
"6. c gray97",
"7. c #F8F8F7",
"8. c #F8F9F8",
"9. c #F9F9F9",
"0. c #FAFAF9",
"q. c gray98",
"w. c #FAFBFA",
"e. c #FBFBFA",
"r. c #FBFBFB",
"t. c #FBFCFB",
"y. c #FCFCFB",
"u. c gray99",
"i. c #FCFDFC",
"p. c #FDFDFD",
"a. c #FEFEFD",
"s. c #FEFEFE",
"d. c gray100",
"f. c None",
/* pixels */
"f.f.f.f.f.f.f.f.f.f.f.f.f.f.f.f.f.f.f.f.f.f.f.f.f.f.f.f.f.f.f.f.",
"f.f.f.f.f.f.f.f.f.f.f.f.f.f.f.f.f.f.f.f.f.f.f.f.f.f.f.f.f.f.f.f.",
"f.f.f.f.f.f.f.f.f.f.f.f.f.f.f.f.f.f.f.f.f.f.f.f.f.f.f.f.f.f.f.f.",
"f.f.f.f.f.f.f.f.f.f.f.f.f.f.f.f.f.f.f.f.f.f.f.f.f.f.f.f.f.f.f.f.",
"f.f.f.f.f.f.f.n l l l l l l l l l n l l l l b l f.f.f.f.f.f.f.f.",
"f.f.f.f.f.f.A X.u.a.a.a.a.a.a.a.a.a.a.a.a.a.r.` A f.f.f.f.f.f.f.",
"f.f.f.f.f.A a.a.u.a.a.a.a.a.a.a.a.a.a.a.a.a.a.a.a.C f.f.f.f.f.f.",
"f.f.f.f.n &.a.a.u.u.u.u.u.u.r.r.u.u.u.u.u.u.u.u.a.X.n f.f.f.f.f.",
"f.f.f.f.b a.r.r.r.r.r.6.r.r.6.r.r.r.9.r.r.r.r.r.r.r.C f.f.f.f.f.",
"f.f.f.f.l a.<.<.<.<.6.<.6.o o o o o <.<.<.<.<.<.<.u.b f.f.f.f.f.",
"f.f.f.f.l a.;.;.:.:.:.:.<.o a.a.a.o <.<.;.<.;.<.<.u.l f.f.f.f.f.",
"f.f.f.f.l a.&.&.&.&.&.&.:.@ a.a.a.+ ;.&.&.&.&.&.:.u.l f.f.f.f.f.",
"f.f.f.f.h a.X.O.:.%.&.%.O.$ a.a.a.$ %.%.%.%.;.O.X.r.l f.f.f.f.f.",
"f.f.f.f.f r.{ { &.* ; ; - ; a.a.a.; - - ; * &.{ X.r.g f.f.f.f.f.",
"f.f.f.f.a r.~ ^ &.< a.a.a.a.a.a.a.a.a.a.a.< ;.~ ` 5.a f.f.f.f.f.",
"f.f.f.f.u r.Q Q #.4 a.a.a.a.a.a.a.a.a.a.a.5 O.~ ~ <.p f.f.f.f.f.",
"f.f.f.f.e 7.R R X.8 r.a.t.t.a.a.a.t.t.t.u.8 X.R R <.t f.f.f.f.f.",
"f.f.f.f.0 <.I I X.e e e e e a.a.a.e e e e t O.I I ;.q f.f.f.f.f.",
"f.f.f.f.8 >.J J %.X.#.X.X.p a.a.a.p X.X.O.O.X.J L X.9 f.f.f.f.f.",
"f.f.f.f.7 &.L L L L L L &.d a.a.a.d &.I L L L L I %.7 f.f.f.f.f.",
"f.f.f.f.3 ;.T T T T T I <.l r.e.t.k <.T T I T T T @.5 f.f.f.f.f.",
"f.f.f.f.< <.R R R R E E <.b n n n b 5.R E E E E W @.1 f.f.f.f.f.",
"f.f.f.f., ) ^ ~ ~ ~ ~ ~ <.9.6.6.r.5.7.~ ~ ~ ~ ~ ` ~ 1 f.f.f.f.f.",
"f.f.f.f.> H O.` ` ' ) ) ` ` ` ` ` ^ ` ` ) ) ) ) @.D > f.f.f.f.f.",
"f.f.f.f.f.> X.&.X.X.' X.X.' X.X.' X.X.X.X.X.@.&.` = f.f.f.f.f.f.",
"f.f.f.f.f.f.* G X.6.6.6.6.6.6.6.6.6.6.6.6.6.' D % f.f.f.f.f.f.f.",
"f.f.f.f.f.f.  . @ O O + O + O + O O O O O O @ . f.f.f.f.f.f.f.f.",
"f.f.f.f.f.f.f.f.f.f.f.f.f.f.f.f.f.f.f.f.f.f.f.f.f.f.f.f.f.f.f.f.",
"f.f.f.f.f.f.f.f.f.f.f.f.f.f.f.f.f.f.f.f.f.f.f.f.f.f.f.f.f.f.f.f.",
"f.f.f.f.f.f.f.f.f.f.f.f.f.f.f.f.f.f.f.f.f.f.f.f.f.f.f.f.f.f.f.f.",
"f.f.f.f.f.f.f.f.f.f.f.f.f.f.f.f.f.f.f.f.f.f.f.f.f.f.f.f.f.f.f.f.",
"f.f.f.f.f.f.f.f.f.f.f.f.f.f.f.f.f.f.f.f.f.f.f.f.f.f.f.f.f.f.f.f."
};
