/* XPM */
static const char *zoom_out_xpm[] = {
/* columns rows colors chars-per-pixel */
"32 32 122 2 ",
"   c #202020",
".  c #4E514D",
"X  c #50524E",
"o  c #585A56",
"O  c #5B5D59",
"+  c #5B5D5A",
"@  c #696B67",
"#  c #6C6E6B",
"$  c #6E706C",
"%  c #71736F",
"&  c #727470",
"*  c #727570",
"=  c #737670",
"-  c #757672",
";  c #777A75",
":  c #797B76",
">  c #7B7D78",
",  c #7C7E7A",
"<  c #80827D",
"1  c #82847F",
"2  c #838580",
"3  c #868983",
"4  c #888B85",
"5  c #8D908A",
"6  c #8E928B",
"7  c #949690",
"8  c #969892",
"9  c #9A9C96",
"0  c #9A9D97",
"q  c #9B9D97",
"w  c #9C9F99",
"e  c #A1A49E",
"r  c #A2A5A0",
"t  c #A8AAA4",
"y  c #A9ABA5",
"u  c #AEB1AB",
"i  c #B0B3AC",
"p  c #B5B8B1",
"a  c #B7B9B3",
"s  c #BABDB6",
"d  c #BBBEB7",
"f  c #BBBEB8",
"g  c #BCBEB8",
"h  c #BCBFB9",
"j  c #BDC0B9",
"k  c #BEC0B9",
"l  c #BDC1BA",
"z  c #BFC0BA",
"x  c #BFC2BB",
"c  c #BFC2BC",
"v  c #C0C3BC",
"b  c #C1C4BE",
"n  c #C3C6BE",
"m  c #C7C7C6",
"M  c #C7C8C6",
"N  c #CCCDCC",
"B  c #D0D1D0",
"V  c #D9DAD8",
"C  c #DBDCDA",
"Z  c #DCDDDA",
"A  c #DDDEDB",
"S  c #DDDEDC",
"D  c #DEDFDE",
"F  c #DFE0DD",
"G  c #E0E1DE",
"H  c #E1E2E0",
"J  c #E2E3E1",
"K  c #E3E4E2",
"L  c #E5E5E4",
"P  c #E5E6E4",
"I  c #E6E7E5",
"U  c #E8E9E7",
"Y  c #E9E9E7",
"T  c #E9EAE8",
"R  c #EAEAE8",
"E  c #EAEAE9",
"W  c #EAEBEA",
"Q  c gray92",
"!  c #EBECEA",
"~  c #ECECEB",
"^  c #EDEDEB",
"/  c #ECECEC",
"(  c #EDEEEC",
")  c #EDEEED",
"_  c #EEEEEC",
"`  c #EEEFED",
"'  c #EEEFEE",
"]  c #EFEFEE",
"[  c #EFF0EE",
"{  c #EFF0EF",
"}  c #F0F0EF",
"|  c #F1F1EF",
" . c gray94",
".. c #F1F1F1",
"X. c #F2F2F1",
"o. c gray95",
"O. c #F2F3F2",
"+. c #F3F3F2",
"@. c #F3F3F3",
"#. c #F3F4F3",
"$. c #F4F4F3",
"%. c #F4F4F4",
"&. c #F5F5F4",
"*. c #F6F6F6",
"=. c #F7F7F6",
"-. c gray97",
";. c #F8F8F7",
":. c #F8F9F8",
">. c #F9F9F9",
",. c #FAFAF9",
"<. c gray98",
"1. c #FBFBFA",
"2. c #FBFBFB",
"3. c #FBFCFB",
"4. c #FCFCFB",
"5. c gray99",
"6. c #FCFDFC",
"7. c #FDFDFD",
"8. c #FEFEFD",
"9. c #FEFEFE",
"0. c gray100",
"q. c None",
/* pixels */
"q.q.q.q.q.q.q.q.q.q.q.q.q.q.q.q.q.q.q.q.q.q.q.q.q.q.q.q.q.q.q.q.",
"q.q.q.q.q.q.q.q.q.q.q.q.q.q.q.q.q.q.q.q.q.q.q.q.q.q.q.q.q.q.q.q.",
"q.q.q.q.q.q.q.q.q.q.q.q.q.q.q.q.q.q.q.q.q.q.q.q.q.q.q.q.q.q.q.q.",
"q.q.q.q.q.q.q.q.q.q.q.q.q.q.q.q.q.q.q.q.q.q.q.q.q.q.q.q.q.q.q.q.",
"q.q.q.q.q.q.q.j j f f f f f f f f f f f f s h h q.q.q.q.q.q.q.q.",
"q.q.q.q.q.q.b ` 2.8.8.8.8.8.8.8.8.8.8.8.8.8.2.Q v q.q.q.q.q.q.q.",
"q.q.q.q.q.b 8.8.8.8.8.8.8.8.8.8.8.8.8.8.8.8.8.8.8.c q.q.q.q.q.q.",
"q.q.q.q.j ..8.8.2.2.2.2.2.2.2.2.2.2.2.2.8.2.2.2.8.` j q.q.q.q.q.",
"q.q.q.q.h 8.2.2.2.2.2.-.2.2.2.2.2.2.2.2.2.2.2.2.2.2.j q.q.q.q.q.",
"q.q.q.q.s 8.%.%.%.%.-.%.%.-.%.%.%.%.%.%.%.%.%.%.%.2.h q.q.q.q.q.",
"q.q.q.q.s 8.+.+.@.@.@.@.%...%...%.....%.+.%.+.%.%.5.f q.q.q.q.q.",
"q.q.q.q.s 8.....................................@.5.f q.q.q.q.q.",
"q.q.q.q.p 8.` ] @. ... .] .... ...] ..] ..} +.] ` 2.s q.q.q.q.q.",
"q.q.q.q.u 2.^ ^ ..$ * * & & * * * & & * * $ ..^ ` 2.i q.q.q.q.q.",
"q.q.q.q.t 2.I U ..: 8.8.8.8.8.8.8.8.8.8.8.: } U U -.t q.q.q.q.q.",
"q.q.q.q.e 2.L L } 1 8.8.8.8.8.8.8.8.8.8.8.1 } L I -.r q.q.q.q.q.",
"q.q.q.q.q %.J J ` 5 2.5.3.3.3.2.8.3.3.3.5.5 ` J J +.q q.q.q.q.q.",
"q.q.q.q.8 %.Z S ] q 9 9 9 9 9 q 9 9 9 9 9 q ] S F ..8 q.q.q.q.q.",
"q.q.q.q.5 #.V V ] ] ` ] `  .` ` ` ` ` ` ] ] ] V C ` 6 q.q.q.q.q.",
"q.q.q.q.3 ..Z Z Z Z Z Z Z Z C S S Z Z S Z Z Z Z S  .4 q.q.q.q.q.",
"q.q.q.q.< #.F F G S G G S F F F S G F F F F F F G [ 1 q.q.q.q.q.",
"q.q.q.q.: ..J J J J J J J J J J J J J J J J J J K [ , q.q.q.q.q.",
"q.q.q.q.; ^ U I I I I I I I I I I I I I I I I I E I , q.q.q.q.q.",
"q.q.q.q.- B ] E E E E E E E E E E E E E E E E E { m - q.q.q.q.q.",
"q.q.q.q.q.- [ ..` ` Q { Q { ` ` Q ` ` ` ` ` [ ..E & q.q.q.q.q.q.",
"q.q.q.q.q.q.# N ` -.-.-.-.-.-.-.-.-.-.-.-.-.Q m @ q.q.q.q.q.q.q.",
"q.q.q.q.q.q.  X + o o o o o o o o o o o o o + . q.q.q.q.q.q.q.q.",
"q.q.q.q.q.q.q.q.q.q.q.q.q.q.q.q.q.q.q.q.q.q.q.q.q.q.q.q.q.q.q.q.",
"q.q.q.q.q.q.q.q.q.q.q.q.q.q.q.q.q.q.q.q.q.q.q.q.q.q.q.q.q.q.q.q.",
"q.q.q.q.q.q.q.q.q.q.q.q.q.q.q.q.q.q.q.q.q.q.q.q.q.q.q.q.q.q.q.q.",
"q.q.q.q.q.q.q.q.q.q.q.q.q.q.q.q.q.q.q.q.q.q.q.q.q.q.q.q.q.q.q.q.",
"q.q.q.q.q.q.q.q.q.q.q.q.q.q.q.q.q.q.q.q.q.q.q.q.q.q.q.q.q.q.q.q."
};
