/* XPM */
static const char *zoom_fit_best_xpm[] = {
/* columns rows colors chars-per-pixel */
"32 32 129 2 ",
"   c #202020",
".  c #4E514D",
"X  c #50524E",
"o  c #585A56",
"O  c #5B5D59",
"+  c #5B5D5A",
"@  c #5E615C",
"#  c #656762",
"$  c #696B67",
"%  c #6B6D69",
"&  c #6C6E6B",
"*  c #71736F",
"=  c #71746F",
"-  c #727570",
";  c #737670",
":  c #757672",
">  c #777A75",
",  c #787A75",
"<  c #797B76",
"1  c #7B7D78",
"2  c #7C7E7A",
"3  c #80827D",
"4  c #82847F",
"5  c #868983",
"6  c #888B85",
"7  c #8D908A",
"8  c #8E928B",
"9  c #91938E",
"0  c #929491",
"q  c #949690",
"w  c #969892",
"e  c #979A94",
"r  c #9A9D97",
"t  c #9C9F99",
"y  c #9DA09A",
"u  c #A1A49E",
"i  c #A2A5A0",
"p  c #A4A6A0",
"a  c #A8AAA4",
"s  c #A9ABA5",
"d  c #AAADA6",
"f  c #AEB1AB",
"g  c #B0B3AC",
"h  c #B5B8B1",
"j  c #B7B9B3",
"k  c #BABDB6",
"l  c #BBBEB7",
"z  c #BBBEB8",
"x  c #BCBEB8",
"c  c #BCBFB9",
"v  c #BDC0B9",
"b  c #BEC0B9",
"n  c #BDC1BA",
"m  c #BFC0BA",
"M  c #BFC2BB",
"N  c #BFC2BC",
"B  c #C0C3BC",
"V  c #C1C4BE",
"C  c #C3C6BE",
"Z  c #C7C7C6",
"A  c #C7C8C6",
"S  c #CCCEC9",
"D  c #CCCDCC",
"F  c #D0D1D0",
"G  c #D9DAD8",
"H  c #DBDCDA",
"J  c #DCDDDA",
"K  c #DDDEDB",
"L  c #DDDEDC",
"P  c #DEDFDE",
"I  c #DFE0DD",
"U  c #DFE0DE",
"Y  c #E0E1DE",
"T  c #E1E2E0",
"R  c #E2E3E1",
"E  c #E3E4E2",
"W  c #E5E5E4",
"Q  c #E5E6E4",
"!  c #E6E7E5",
"~  c #E8E9E7",
"^  c #E9E9E7",
"/  c #E9EAE8",
"(  c #EAEAE8",
")  c #EAEAE9",
"_  c #EAEBEA",
"`  c gray92",
"'  c #EBECEA",
"]  c #ECECEB",
"[  c #EDEDEB",
"{  c #ECECEC",
"}  c #EDEEEC",
"|  c #EDEEED",
" . c #EEEEEC",
".. c #EEEFED",
"X. c #EEEFEE",
"o. c #EFEFEE",
"O. c #EFF0EE",
"+. c #EFF0EF",
"@. c #F0F0EF",
"#. c gray94",
"$. c #F1F1F1",
"%. c #F2F2F1",
"&. c gray95",
"*. c #F2F3F2",
"=. c #F3F3F2",
"-. c #F3F3F3",
";. c #F3F4F3",
":. c #F4F4F3",
">. c #F4F4F4",
",. c #F5F5F4",
"<. c #F6F6F6",
"1. c #F7F7F6",
"2. c gray97",
"3. c #F8F8F7",
"4. c #F8F8F8",
"5. c #F8F9F8",
"6. c #F9F9F9",
"7. c #FAFAF9",
"8. c gray98",
"9. c #FBFBFA",
"0. c #FBFBFB",
"q. c #FCFCFB",
"w. c gray99",
"e. c #FCFDFC",
"r. c #FDFDFD",
"t. c #FEFEFD",
"y. c #FEFEFE",
"u. c gray100",
"i. c None",
/* pixels */
"i.i.i.i.i.i.i.i.i.i.i.i.i.i.i.i.i.i.i.i.i.i.i.i.i.i.i.i.i.i.i.i.",
"i.i.i.i.i.i.i.i.i.i.i.i.i.i.i.i.i.i.i.i.i.i.i.i.i.i.i.i.i.i.i.i.",
"i.i.i.i.i.i.i.i.i.i.i.i.i.i.i.i.i.i.i.i.i.i.i.i.i.i.i.i.i.i.i.i.",
"i.i.i.i.i.i.i.i.i.i.i.i.i.i.i.i.i.i.i.i.i.i.i.i.i.i.i.i.i.i.i.i.",
"i.i.i.i.i.i.i.v v z z z z z z z z z z z z k c c i.i.i.i.i.i.i.i.",
"i.i.i.i.i.i.V ..0.t.t.t.t.t.t.t.t.t.t.t.t.t.0.` B i.i.i.i.i.i.i.",
"i.i.i.i.i.V t.t.t.t.t.t.t.t.t.t.t.t.t.t.t.t.t.t.t.N i.i.i.i.i.i.",
"i.i.i.i.v $.t.t.0.0.0.0.0.0.0.0.0.0.0.0.t.0.0.0.t...v i.i.i.i.i.",
"i.i.i.i.c t.0.0.0.0.4.0.0.0.0.0.2.0.0.0.0.0.0.0.0.0.v i.i.i.i.i.",
"i.i.i.i.k t.>.>.>.0 @ + @ @ >.>.>.@ @ @ + 0 >.>.>.0.c i.i.i.i.i.",
"i.i.i.i.k t.=.=.>.# t.t.t.# >.:.>.# t.t.t.# 1.>.>.w.z i.i.i.i.i.",
"i.i.i.i.k t.$.$.>.& t.& % % 1.@.2.% % % t.% >.$.-.w.z i.i.i.i.i.",
"i.i.i.i.h t...o.0.* t.- >.3.3...0.>.>.- t.* 1.o...0.k i.i.i.i.i.",
"i.i.i.i.f 0.[ [ 3.> > > 3...[ [ [ [ 0., , > 1.[ ..0.f i.i.i.i.i.",
"i.i.i.i.a 0.! ~ 0.3.4.3.0.~ ~ ~ ~ ~ 3.3.1.0.4.~ ( 1.a i.i.i.i.i.",
"i.i.i.i.u 0.W W E W ! W W W W W W W W ! W W ! ! ~ >.p i.i.i.i.i.",
"i.i.i.i.r 3.Y R R R Y R R R U R Y R R Y R R R R R :.t i.i.i.i.i.",
"i.i.i.i.0 >.L L L 9 9 0 L L L L L L U 9 9 9 L L L $.w i.i.i.i.i.",
"i.i.i.i.7 =.G G R e t.e R R R G Y R R e t.e R G J +.8 i.i.i.i.i.",
"i.i.i.i.5 :.J J ~ y t.y t t ( J ~ y y y t.y ~ J L +.6 i.i.i.i.i.",
"i.i.i.i.3 $.U U ..p t.t.t.p #.U ..p t.t.t.p +.U Y ..5 i.i.i.i.i.",
"i.i.i.i.1 $.R R $.S d d d d >.R >.d d d d S $.R R ..1 i.i.i.i.i.",
"i.i.i.i.> ..( ! ..>.0.>.2.2.2.! 0.>.0.3.0.>.` ! ( ! 1 i.i.i.i.i.",
"i.i.i.i.- F +.( ( ( ( ( ( ` ( ( ( ( ( ( ( ( ( ( #.Z - i.i.i.i.i.",
"i.i.i.i.i.: ..$...........| ....| ......| | #.-.( * i.i.i.i.i.i.",
"i.i.i.i.i.i.& D ..>.2.2.2.2.2.2.2.2.2.2.2.2.` Z $ i.i.i.i.i.i.i.",
"i.i.i.i.i.i.  X + o o o o o o o o o o o o o + . i.i.i.i.i.i.i.i.",
"i.i.i.i.i.i.i.i.i.i.i.i.i.i.i.i.i.i.i.i.i.i.i.i.i.i.i.i.i.i.i.i.",
"i.i.i.i.i.i.i.i.i.i.i.i.i.i.i.i.i.i.i.i.i.i.i.i.i.i.i.i.i.i.i.i.",
"i.i.i.i.i.i.i.i.i.i.i.i.i.i.i.i.i.i.i.i.i.i.i.i.i.i.i.i.i.i.i.i.",
"i.i.i.i.i.i.i.i.i.i.i.i.i.i.i.i.i.i.i.i.i.i.i.i.i.i.i.i.i.i.i.i.",
"i.i.i.i.i.i.i.i.i.i.i.i.i.i.i.i.i.i.i.i.i.i.i.i.i.i.i.i.i.i.i.i."
};
