/* XPM */
static const char *zoom_original_xpm[] = {
/* columns rows colors chars-per-pixel */
"32 32 143 2 ",
"   c #202020",
".  c #4E514D",
"X  c #50524E",
"o  c #585A56",
"O  c #5B5D59",
"+  c #5B5D5A",
"@  c #656763",
"#  c #696B67",
"$  c #6D6F6A",
"%  c #6C6E6B",
"&  c #71736F",
"*  c #727570",
"=  c #737670",
"-  c #757672",
";  c #747772",
":  c #777A75",
">  c #797B76",
",  c #7B7D78",
"<  c #7C7E7A",
"1  c #7C7F7A",
"2  c #7E817C",
"3  c #80827D",
"4  c #82847F",
"5  c #848681",
"6  c #868783",
"7  c #868983",
"8  c #878985",
"9  c #888B85",
"0  c #8C8E89",
"q  c #8D908A",
"w  c #8E928B",
"e  c #939690",
"r  c #949690",
"t  c #949593",
"y  c #969892",
"u  c #9A9D97",
"i  c #9B9E98",
"p  c #9C9F99",
"a  c #A1A49E",
"s  c #A3A69F",
"d  c #A2A5A0",
"f  c #A3A5A2",
"g  c #A8AAA4",
"h  c #A9ABA5",
"j  c #ABAEA7",
"k  c #AEB1AB",
"l  c #B0B3AC",
"z  c #B2B5AF",
"x  c #B5B8B1",
"c  c #B7B9B3",
"v  c #BABDB6",
"b  c #BBBEB7",
"n  c #BBBEB8",
"m  c #BCBEB8",
"M  c #BCBFB9",
"N  c #BDC0B9",
"B  c #BEC0B9",
"V  c #BDC1BA",
"C  c #BFC0BA",
"Z  c #BFC2BB",
"A  c #BFC2BC",
"S  c #C0C3BC",
"D  c #C1C4BE",
"F  c #C3C6BE",
"G  c #C7C7C6",
"H  c #C7C8C6",
"J  c #CCCDCC",
"K  c #D0D1D0",
"L  c #D9DAD8",
"P  c #DADBD9",
"I  c #DBDCDA",
"U  c #DCDDDA",
"Y  c #DDDEDB",
"T  c #DDDEDC",
"R  c #DEDFDD",
"E  c #DEDFDE",
"W  c #DFE0DD",
"Q  c #E0E1DE",
"!  c #E1E2E0",
"~  c #E2E3E1",
"^  c #E2E3E2",
"/  c #E3E4E2",
"(  c #E5E5E4",
")  c #E5E6E4",
"_  c #E6E7E5",
"`  c #E8E9E7",
"'  c #E9E9E7",
"]  c #E9EAE8",
"[  c #E9EAE9",
"{  c #EAEAE8",
"}  c #EAEAE9",
"|  c #EAEAEA",
" . c #EAEBEA",
".. c gray92",
"X. c #EBECEA",
"o. c #ECECEB",
"O. c #EDEDEB",
"+. c #ECECEC",
"@. c #EDEEEC",
"#. c #EDEEED",
"$. c #EEEEEC",
"%. c #EEEFED",
"&. c #EEEFEE",
"*. c #EFEFEE",
"=. c #EFF0EE",
"-. c #EFF0EF",
";. c #F0F0EF",
":. c gray94",
">. c #F0F1F0",
",. c #F1F1F0",
"<. c #F1F1F1",
"1. c #F1F2F1",
"2. c #F2F2F1",
"3. c gray95",
"4. c #F2F3F2",
"5. c #F3F3F2",
"6. c #F3F3F3",
"7. c #F3F4F3",
"8. c #F4F4F2",
"9. c #F4F4F3",
"0. c #F4F4F4",
"q. c #F5F5F4",
"w. c gray96",
"e. c #F6F6F5",
"r. c #F6F6F6",
"t. c #F7F7F6",
"y. c gray97",
"u. c #F8F8F7",
"i. c #F8F8F8",
"p. c #F8F9F8",
"a. c #F9F9F9",
"s. c #FAFAF9",
"d. c gray98",
"f. c #FBFBFA",
"g. c #FBFBFB",
"h. c #FCFCFB",
"j. c gray99",
"k. c #FCFDFC",
"l. c #FDFDFD",
"z. c #FEFEFD",
"x. c #FEFEFE",
"c. c gray100",
"v. c None",
/* pixels */
"v.v.v.v.v.v.v.v.v.v.v.v.v.v.v.v.v.v.v.v.v.v.v.v.v.v.v.v.v.v.v.v.",
"v.v.v.v.v.v.v.v.v.v.v.v.v.v.v.v.v.v.v.v.v.v.v.v.v.v.v.v.v.v.v.v.",
"v.v.v.v.v.v.v.v.v.v.v.v.v.v.v.v.v.v.v.v.v.v.v.v.v.v.v.v.v.v.v.v.",
"v.v.v.v.v.v.v.v.v.v.v.v.v.v.v.v.v.v.v.v.v.v.v.v.v.v.v.v.v.v.v.v.",
"v.v.v.v.v.v.v.N v v v v v v v v N v v v v v M v v.v.v.v.v.v.v.v.",
"v.v.v.v.v.v.D %.j.z.z.z.z.z.z.z.z.z.z.z.z.z.j.} D v.v.v.v.v.v.v.",
"v.v.v.v.v.D z.z.j.z.z.z.z.z.z.z.z.z.z.z.z.z.z.z.z.A v.v.v.v.v.v.",
"v.v.v.v.N <.z.z.j.j.j.j.j.j.g.g.j.j.j.j.j.j.j.j.z.%.N v.v.v.v.v.",
"v.v.v.v.M z.g.g.i.g.i.g.g.g.g.i.g.i.g.g.u.g.g.g.g.g.A v.v.v.v.v.",
"v.v.v.v.v z.w.w.w.w.w.w.w.i.t @ @ @ @ g.w.w.w.w.w.j.M v.v.v.v.v.",
"v.v.v.v.v z.5.5.0.0.0.w.w.G 6 z.z.z.$ w.5.5.8.5.0.j.v v.v.v.v.v.",
"v.v.v.v.v z.<.<.:.<.0.f 8 2 ^ z.z.z.- w.<.<.<.;.<.z.v v.v.v.v.v.",
"v.v.v.v.x z.%.*.%.%.8.1 } z.z.z.z.z.2 w.;.;.*.*.-.g.c v.v.v.v.v.",
"v.v.v.v.k g.O.O.%.+.5.5 z.z.z.z.z.z.5 <.O.$.O.O.%.g.l v.v.v.v.v.",
"v.v.v.v.g g._ ` ' ' <.0 0 0 0 z.z.z.0 <.` ` ` ` ` u.g v.v.v.v.v.",
"v.v.v.v.a g.( ( _ ( ..<.<.<.r z.z.z.r <.( ( ( ( ` w.f v.v.v.v.v.",
"v.v.v.v.u u.^ Q Q ^ Q ^ / ;.p z.z.z.p <.^ Q ^ ^ ^ 8.p v.v.v.v.v.",
"v.v.v.v.r w.U U T T T U W <.f z.z.z.s <.W U U T T <.r v.v.v.v.v.",
"v.v.v.v.w <.L L P P P P P -.j z.z.z.j <.I L L L U -.w v.v.v.v.v.",
"v.v.v.v.7 8.U U I I U U U 7.z z.z.z.l 7.U U U U U <.9 v.v.v.v.v.",
"v.v.v.v.2 7.W W W W W W Q w.v z.z.z.v w.Q W W W W <.4 v.v.v.v.v.",
"v.v.v.v.> 7.^ ^ / ^ / Q ^ w.v v v v v w.^ ^ ^ ^ / %.1 v.v.v.v.v.",
"v.v.v.v.: O.` _ _ _ _ _ _ %.w.i.g.i.w.%._ _ _ _ } ( 1 v.v.v.v.v.",
"v.v.v.v.= K ;.} } } } } } } } } } } } } } } } } -.H = v.v.v.v.v.",
"v.v.v.v.v.- %.<.%.%.%.+.#.#.%.#.#.%.%.%.%.%.-.<.} = v.v.v.v.v.v.",
"v.v.v.v.v.v.% J %.w.i.i.w.i.i.i.i.w.i.i.w.y...G # v.v.v.v.v.v.v.",
"v.v.v.v.v.v.  X + o o o o o o o o o o o o o + . v.v.v.v.v.v.v.v.",
"v.v.v.v.v.v.v.v.v.v.v.v.v.v.v.v.v.v.v.v.v.v.v.v.v.v.v.v.v.v.v.v.",
"v.v.v.v.v.v.v.v.v.v.v.v.v.v.v.v.v.v.v.v.v.v.v.v.v.v.v.v.v.v.v.v.",
"v.v.v.v.v.v.v.v.v.v.v.v.v.v.v.v.v.v.v.v.v.v.v.v.v.v.v.v.v.v.v.v.",
"v.v.v.v.v.v.v.v.v.v.v.v.v.v.v.v.v.v.v.v.v.v.v.v.v.v.v.v.v.v.v.v.",
"v.v.v.v.v.v.v.v.v.v.v.v.v.v.v.v.v.v.v.v.v.v.v.v.v.v.v.v.v.v.v.v."
};
