/* XPM */
static const char * zoom_in_xpm[] = {
/* columns rows colors chars-per-pixel */
"24 24 77 1 ",
"  c #4C4D4A",
". c #4D4E4B",
"X c #555753",
"o c #585A56",
"O c #5A5D58",
"+ c #61635E",
"@ c #676865",
"# c #686966",
"$ c #6C6E69",
"% c #70716E",
"& c #777974",
"* c #7A7D77",
"= c #7B7D78",
"- c #838580",
"; c #8B8E88",
": c #8E908B",
"> c #949791",
", c #999C96",
"< c #9B9E98",
"1 c #9C9F99",
"2 c #9D9F99",
"3 c #A4A7A1",
"4 c #A5A8A2",
"5 c #AEB1AA",
"6 c #B0B3AC",
"7 c #B2B3B1",
"8 c #B6B9B2",
"9 c #BABDB6",
"0 c #B9BAB8",
"q c #BABCBA",
"w c #BCBFB8",
"e c #BCBFB9",
"r c #BDC0B8",
"t c #BDC0B9",
"y c #BEC1B9",
"u c #BEC0BB",
"i c #BEC1BB",
"p c #D9DAD8",
"a c #DDDEDC",
"s c #DEDEDC",
"d c #E2E2E0",
"f c #E3E3E1",
"g c #E6E7E5",
"h c #E7E8E6",
"j c #E8E8E6",
"k c gray91",
"l c #E9E9E8",
"z c #E9EAE8",
"x c #EAEAE9",
"c c #EBECEB",
"v c #EDEDEB",
"b c #EEEEEE",
"n c #EFEFEF",
"m c #F0F0EF",
"M c #F2F2F1",
"N c #F3F3F1",
"B c gray95",
"V c #F3F3F2",
"C c #F3F3F3",
"Z c #F3F4F3",
"A c #F4F4F3",
"S c #F5F5F4",
"D c gray96",
"F c #F6F6F6",
"G c #F6F7F6",
"H c gray97",
"J c #F8F8F7",
"K c #F9F9F9",
"L c #FAFAF9",
"P c gray98",
"I c #FBFCFB",
"U c #FCFCFB",
"Y c gray99",
"T c #FDFDFD",
"R c #FEFEFE",
"E c gray100",
"W c None",
/* pixels */
"WWWWWWWWWWWWWWWWWWWWWWWW",
"WWWWWWWWWWWWWWWWWWWWWWWW",
"WWWWWWWWWWWWWWWWWWWWWWWW",
"WWWWWet9999999999ttWWWWW",
"WWWWijIRRRRRRRRRRUgtWWWW",
"WWWtxRRPRPRRRIRRPRRxiWWW",
"WWWtRPPPPPPFPPPFPPPRtWWW",
"WWW9RFFFFFXXXXFFFFFR9WWW",
"WWW9RMMMMM+RR+FMMMMR9WWW",
"WWW8RmAbnb$RR$bbmMMR8WWW",
"WWW5RbZ&===RR===&AvR5WWW",
"WWW4RjM-RRRRRRRR-MjR4WWW",
"WWW2UfM:IIRRRRII:ZfU2WWW",
"WWW>PaA21,,RR,1,2AaP>WWW",
"WWW;FpAZAA4RR4AAZApF:WWW",
"WWW-FaaaaF6PP5FaaaaF-WWW",
"WWW*FdddfFrttrHdddfA*WWW",
"WWW&xxgggHHHJJHgggxx&WWW",
"WWW%qFbcccxbvccccnZ0%WWW",
"WWWW@7jFHHHFHHHHFg7#WWWW",
"WWWWW OooooooooooO WWWWW",
"WWWWWWWWWWWWWWWWWWWWWWWW",
"WWWWWWWWWWWWWWWWWWWWWWWW",
"WWWWWWWWWWWWWWWWWWWWWWWW"
};
