/* XPM */
static const char * zoom_original_xpm[] = {
/* columns rows colors chars-per-pixel */
"24 24 84 1 ",
"  c #4C4D4A",
". c #4D4E4B",
"X c #585A56",
"o c #5A5D58",
"O c #676865",
"+ c #686966",
"@ c #6A6D68",
"# c #70716E",
"$ c #757772",
"% c #777974",
"& c #7A7D77",
"* c #7F817C",
"= c #838580",
"- c #848681",
"; c #868884",
": c #898C86",
"> c #8B8E88",
", c #949690",
"< c #949791",
"1 c #949793",
"2 c #9D9F99",
"3 c #9EA19A",
"4 c #A0A19D",
"5 c #A5A8A2",
"6 c #A8ABA5",
"7 c #AEB1AA",
"8 c #B2B5AF",
"9 c #B2B3B1",
"0 c #B6B9B2",
"q c #BABDB6",
"w c #B9BAB8",
"e c #BABCBA",
"r c #BCBFB9",
"t c #BDC0B8",
"y c #BDC0B9",
"u c #BEC0BB",
"i c #BEC1BB",
"p c #C2C3C1",
"a c #D9DAD8",
"s c #DADBD9",
"d c #DDDEDC",
"f c #DEDEDC",
"g c #DEDFDD",
"h c #DFDFDD",
"j c #E0E0DF",
"k c #E2E2E0",
"l c #E3E3E1",
"z c #E4E4E2",
"x c #E6E7E5",
"c c #E7E8E6",
"v c #E8E8E6",
"b c gray91",
"n c #E9E9E8",
"m c #E9EAE8",
"M c #EAEAE9",
"N c #EBECEB",
"B c #EDEDEB",
"V c #ECEDEC",
"C c #EDEDEC",
"Z c #EEEEEE",
"A c #F0F0EF",
"S c #F1F1F1",
"D c gray95",
"F c #F3F3F2",
"G c #F3F4F3",
"H c #F4F4F4",
"J c #F5F5F4",
"K c gray96",
"L c #F6F6F5",
"P c #F6F6F6",
"I c #F6F7F6",
"U c gray97",
"Y c #F8F8F7",
"T c #F9F9F9",
"R c #FAFAF9",
"E c gray98",
"W c #FBFBFA",
"Q c #FBFBFB",
"! c #FCFCFB",
"~ c gray99",
"^ c #FDFDFD",
"/ c #FEFEFE",
"( c gray100",
") c None",
/* pixels */
"))))))))))))))))))))))))",
"))))))))))))))))))))))))",
"))))))))))))))))))))))))",
")))))yyqqqqqqqqqqyr)))))",
"))))ivQ//////////!vy))))",
")))yM//E///E/Q//E//Mi)))",
")))y/EEEEPEEEEEPEEE/y)))",
")))q/PPPPPP1@@@PPPP/q)))",
")))q/SSSPSp;E/$PSFS/q)))",
")))0/ASAP=4k//*PAAA/0)))",
")))7/CBBG:////:PBBB/7)))",
")))5/vvvG,,,//,Gvvv/5)))",
")))3QklkBPP3//3Plll!3)))",
"))),EhhdhhY6//6YdddE1)))",
")))>Paaaaa!8//8!daaP:)))",
")))=Hdddhh/q//q/gddP=)))",
")))&Pjkkkk/qqqq/kkkP&)))",
")))%MMccxcG////GxcMM%)))",
")))#eSCNNNNNCCNNNCHw#)))",
"))))O9MYUUPYPUUUPb9O))))",
"))))).oXXXXXXXXXXo.)))))",
"))))))))))))))))))))))))",
"))))))))))))))))))))))))",
"))))))))))))))))))))))))"
};
